<svg width="718" height="535" viewBox="0 0 718 535" fill="none" xmlns="http://www.w3.org/2000/svg">
<path fill-rule="evenodd" clip-rule="evenodd" d="M612.791 380.5C632.073 344.266 643 302.909 643 259C643 115.958 527.042 0 384 0C240.958 0 125 115.958 125 259C125 402.042 240.958 518 384 518C438.896 518 489.803 500.921 531.698 471.787C540.016 467.987 553.011 463.5 568 463.5C587.5 463.5 602.5 465.5 612 474.5C614.534 476.901 617.744 481.051 621.598 486.033C628.753 495.283 638.125 507.4 649.5 516.5C670.471 533.277 716.5 535 716.5 535V380.5H612.791Z" fill="url(#paint0_linear_0_1)"/>
<path d="M385 147C385 135.402 394.402 126 406 126H718V382H406C394.402 382 385 372.598 385 361V147Z" fill="url(#paint1_linear_0_1)"/>
<g filter="url(#filter0_d_0_1)">
<path d="M7 191C7 177.745 17.7452 167 31 167H67V349H31C17.7452 349 7 338.255 7 325V191Z" fill="url(#paint2_linear_0_1)" fill-opacity="0.6" shape-rendering="crispEdges"/>
</g>
<g filter="url(#filter1_d_0_1)">
<path d="M36 169C36 155.745 46.7452 145 60 145H67V363H60C46.7452 363 36 352.255 36 339V169Z" fill="url(#paint3_linear_0_1)" fill-opacity="0.9" shape-rendering="crispEdges"/>
</g>
<rect x="67" y="126" width="291" height="256" rx="23" fill="url(#paint4_linear_0_1)"/>
<path d="M322.125 171C322.125 171.621 322.629 172.125 323.25 172.125C323.871 172.125 324.375 171.621 324.375 171C324.375 170.379 323.871 169.875 323.25 169.875C322.629 169.875 322.125 170.379 322.125 171Z" stroke="#822DD4" stroke-width="1.5" stroke-linecap="round" stroke-linejoin="round"/>
<path d="M313.875 171C313.875 171.621 314.379 172.125 315 172.125C315.621 172.125 316.125 171.621 316.125 171C316.125 170.379 315.621 169.875 315 169.875C314.379 169.875 313.875 170.379 313.875 171Z" stroke="#822DD4" stroke-width="1.5" stroke-linecap="round" stroke-linejoin="round"/>
<path d="M305.625 171C305.625 171.621 306.129 172.125 306.75 172.125C307.371 172.125 307.875 171.621 307.875 171C307.875 170.379 307.371 169.875 306.75 169.875C306.129 169.875 305.625 170.379 305.625 171Z" stroke="#822DD4" stroke-width="1.5" stroke-linecap="round" stroke-linejoin="round"/>
<path d="M115.859 172.834H118.057C117.986 173.672 117.752 174.419 117.354 175.075C116.955 175.726 116.396 176.238 115.675 176.613C114.954 176.988 114.078 177.176 113.047 177.176C112.256 177.176 111.544 177.035 110.911 176.754C110.278 176.467 109.736 176.062 109.285 175.541C108.834 175.014 108.488 174.378 108.248 173.634C108.014 172.89 107.896 172.058 107.896 171.138V170.074C107.896 169.154 108.017 168.322 108.257 167.578C108.503 166.834 108.854 166.198 109.312 165.671C109.769 165.138 110.316 164.73 110.955 164.449C111.6 164.168 112.323 164.027 113.126 164.027C114.146 164.027 115.007 164.215 115.71 164.59C116.413 164.965 116.958 165.483 117.345 166.146C117.737 166.808 117.978 167.566 118.065 168.422H115.868C115.81 167.871 115.681 167.399 115.481 167.007C115.288 166.614 115.001 166.315 114.62 166.11C114.239 165.899 113.741 165.794 113.126 165.794C112.622 165.794 112.183 165.888 111.808 166.075C111.433 166.263 111.119 166.538 110.867 166.901C110.615 167.265 110.425 167.713 110.296 168.246C110.173 168.773 110.111 169.377 110.111 170.057V171.138C110.111 171.782 110.167 172.368 110.278 172.896C110.396 173.417 110.571 173.865 110.806 174.24C111.046 174.615 111.351 174.905 111.72 175.11C112.089 175.315 112.531 175.418 113.047 175.418C113.674 175.418 114.181 175.318 114.567 175.119C114.96 174.92 115.256 174.63 115.455 174.249C115.66 173.862 115.795 173.391 115.859 172.834ZM122.837 167.49V177H120.71V167.49H122.837ZM120.57 164.994C120.57 164.672 120.675 164.405 120.886 164.194C121.103 163.978 121.402 163.869 121.783 163.869C122.158 163.869 122.453 163.978 122.67 164.194C122.887 164.405 122.995 164.672 122.995 164.994C122.995 165.311 122.887 165.574 122.67 165.785C122.453 165.996 122.158 166.102 121.783 166.102C121.402 166.102 121.103 165.996 120.886 165.785C120.675 165.574 120.57 165.311 120.57 164.994ZM130.237 167.49V169.037H124.876V167.49H130.237ZM126.422 165.161H128.541V174.372C128.541 174.665 128.582 174.891 128.664 175.049C128.752 175.201 128.872 175.304 129.024 175.356C129.176 175.409 129.355 175.436 129.56 175.436C129.707 175.436 129.847 175.427 129.982 175.409C130.117 175.392 130.225 175.374 130.307 175.356L130.316 176.974C130.14 177.026 129.935 177.073 129.701 177.114C129.472 177.155 129.209 177.176 128.91 177.176C128.423 177.176 127.993 177.091 127.618 176.921C127.243 176.745 126.95 176.461 126.739 176.068C126.528 175.676 126.422 175.154 126.422 174.504V165.161ZM134.859 167.49V177H132.732V167.49H134.859ZM132.592 164.994C132.592 164.672 132.697 164.405 132.908 164.194C133.125 163.978 133.424 163.869 133.805 163.869C134.18 163.869 134.475 163.978 134.692 164.194C134.909 164.405 135.017 164.672 135.017 164.994C135.017 165.311 134.909 165.574 134.692 165.785C134.475 165.996 134.18 166.102 133.805 166.102C133.424 166.102 133.125 165.996 132.908 165.785C132.697 165.574 132.592 165.311 132.592 164.994ZM143.99 167.49H145.915V176.736C145.915 177.592 145.734 178.318 145.37 178.916C145.007 179.514 144.5 179.968 143.85 180.278C143.199 180.595 142.446 180.753 141.591 180.753C141.228 180.753 140.823 180.7 140.378 180.595C139.939 180.489 139.511 180.319 139.095 180.085C138.685 179.856 138.342 179.555 138.067 179.18L139.06 177.932C139.4 178.336 139.775 178.632 140.185 178.819C140.595 179.007 141.026 179.101 141.477 179.101C141.963 179.101 142.376 179.01 142.716 178.828C143.062 178.652 143.328 178.392 143.516 178.046C143.703 177.7 143.797 177.278 143.797 176.78V169.644L143.99 167.49ZM137.53 172.351V172.166C137.53 171.445 137.618 170.789 137.794 170.197C137.97 169.6 138.222 169.087 138.55 168.659C138.878 168.226 139.276 167.895 139.745 167.666C140.214 167.432 140.744 167.314 141.336 167.314C141.951 167.314 142.476 167.426 142.909 167.648C143.349 167.871 143.715 168.19 144.008 168.606C144.301 169.017 144.529 169.509 144.693 170.083C144.863 170.651 144.989 171.284 145.071 171.981V172.57C144.995 173.25 144.866 173.871 144.685 174.434C144.503 174.996 144.263 175.482 143.964 175.893C143.665 176.303 143.296 176.619 142.857 176.842C142.423 177.064 141.91 177.176 141.318 177.176C140.738 177.176 140.214 177.056 139.745 176.815C139.282 176.575 138.884 176.238 138.55 175.805C138.222 175.371 137.97 174.861 137.794 174.275C137.618 173.684 137.53 173.042 137.53 172.351ZM139.649 172.166V172.351C139.649 172.784 139.69 173.188 139.772 173.563C139.859 173.938 139.991 174.27 140.167 174.557C140.349 174.838 140.577 175.061 140.853 175.225C141.134 175.383 141.465 175.462 141.846 175.462C142.344 175.462 142.751 175.356 143.068 175.146C143.39 174.935 143.636 174.65 143.806 174.293C143.982 173.93 144.105 173.525 144.175 173.08V171.489C144.14 171.144 144.067 170.821 143.955 170.522C143.85 170.224 143.706 169.963 143.525 169.74C143.343 169.512 143.114 169.336 142.839 169.213C142.564 169.084 142.238 169.02 141.863 169.02C141.483 169.02 141.151 169.102 140.87 169.266C140.589 169.43 140.358 169.655 140.176 169.942C140 170.229 139.868 170.563 139.78 170.944C139.693 171.325 139.649 171.732 139.649 172.166ZM150.959 169.301V177H148.841V167.49H150.863L150.959 169.301ZM153.869 167.429L153.851 169.397C153.722 169.374 153.581 169.356 153.429 169.345C153.283 169.333 153.136 169.327 152.99 169.327C152.626 169.327 152.307 169.38 152.032 169.485C151.756 169.585 151.525 169.731 151.337 169.925C151.156 170.112 151.015 170.341 150.915 170.61C150.816 170.88 150.757 171.182 150.74 171.516L150.256 171.551C150.256 170.953 150.315 170.399 150.432 169.89C150.549 169.38 150.725 168.932 150.959 168.545C151.2 168.158 151.498 167.856 151.856 167.64C152.219 167.423 152.638 167.314 153.113 167.314C153.242 167.314 153.379 167.326 153.526 167.35C153.678 167.373 153.792 167.399 153.869 167.429ZM155.283 172.351V172.148C155.283 171.463 155.382 170.827 155.582 170.241C155.781 169.649 156.068 169.137 156.443 168.703C156.824 168.264 157.287 167.924 157.832 167.684C158.382 167.438 159.004 167.314 159.695 167.314C160.392 167.314 161.013 167.438 161.558 167.684C162.109 167.924 162.575 168.264 162.956 168.703C163.337 169.137 163.627 169.649 163.826 170.241C164.025 170.827 164.125 171.463 164.125 172.148V172.351C164.125 173.036 164.025 173.672 163.826 174.258C163.627 174.844 163.337 175.356 162.956 175.796C162.575 176.229 162.112 176.569 161.567 176.815C161.022 177.056 160.404 177.176 159.713 177.176C159.015 177.176 158.391 177.056 157.841 176.815C157.296 176.569 156.833 176.229 156.452 175.796C156.071 175.356 155.781 174.844 155.582 174.258C155.382 173.672 155.283 173.036 155.283 172.351ZM157.401 172.148V172.351C157.401 172.778 157.445 173.183 157.533 173.563C157.621 173.944 157.758 174.278 157.946 174.565C158.133 174.853 158.374 175.078 158.667 175.242C158.96 175.406 159.308 175.488 159.713 175.488C160.105 175.488 160.445 175.406 160.732 175.242C161.025 175.078 161.265 174.853 161.453 174.565C161.64 174.278 161.778 173.944 161.866 173.563C161.96 173.183 162.007 172.778 162.007 172.351V172.148C162.007 171.727 161.96 171.328 161.866 170.953C161.778 170.572 161.637 170.235 161.444 169.942C161.257 169.649 161.016 169.421 160.723 169.257C160.436 169.087 160.093 169.002 159.695 169.002C159.297 169.002 158.951 169.087 158.658 169.257C158.371 169.421 158.133 169.649 157.946 169.942C157.758 170.235 157.621 170.572 157.533 170.953C157.445 171.328 157.401 171.727 157.401 172.148ZM172.342 174.759V167.49H174.469V177H172.465L172.342 174.759ZM172.641 172.781L173.353 172.764C173.353 173.402 173.282 173.991 173.142 174.53C173.001 175.063 172.784 175.529 172.491 175.928C172.198 176.32 171.823 176.628 171.366 176.851C170.909 177.067 170.361 177.176 169.723 177.176C169.26 177.176 168.835 177.108 168.448 176.974C168.061 176.839 167.728 176.631 167.446 176.35C167.171 176.068 166.957 175.702 166.805 175.251C166.652 174.8 166.576 174.261 166.576 173.634V167.49H168.694V173.651C168.694 173.997 168.735 174.287 168.817 174.521C168.899 174.75 169.011 174.935 169.151 175.075C169.292 175.216 169.456 175.315 169.644 175.374C169.831 175.433 170.03 175.462 170.241 175.462C170.845 175.462 171.319 175.345 171.665 175.11C172.017 174.87 172.266 174.548 172.412 174.144C172.564 173.739 172.641 173.285 172.641 172.781ZM179.487 169.318V180.656H177.368V167.49H179.32L179.487 169.318ZM185.683 172.157V172.342C185.683 173.033 185.601 173.675 185.437 174.267C185.279 174.853 185.041 175.365 184.725 175.805C184.414 176.238 184.031 176.575 183.573 176.815C183.116 177.056 182.589 177.176 181.991 177.176C181.4 177.176 180.881 177.067 180.436 176.851C179.996 176.628 179.624 176.314 179.32 175.91C179.015 175.506 178.769 175.031 178.581 174.486C178.4 173.936 178.271 173.332 178.195 172.676V171.964C178.271 171.267 178.4 170.634 178.581 170.065C178.769 169.497 179.015 169.008 179.32 168.598C179.624 168.188 179.996 167.871 180.436 167.648C180.875 167.426 181.388 167.314 181.974 167.314C182.572 167.314 183.102 167.432 183.565 167.666C184.028 167.895 184.417 168.223 184.734 168.65C185.05 169.072 185.287 169.582 185.446 170.18C185.604 170.771 185.683 171.431 185.683 172.157ZM183.565 172.342V172.157C183.565 171.718 183.524 171.311 183.442 170.936C183.36 170.555 183.231 170.221 183.055 169.934C182.879 169.646 182.654 169.424 182.378 169.266C182.109 169.102 181.783 169.02 181.403 169.02C181.028 169.02 180.705 169.084 180.436 169.213C180.166 169.336 179.941 169.509 179.759 169.731C179.577 169.954 179.437 170.215 179.337 170.514C179.238 170.807 179.167 171.126 179.126 171.472V173.177C179.197 173.599 179.317 173.985 179.487 174.337C179.656 174.688 179.897 174.97 180.207 175.181C180.524 175.386 180.928 175.488 181.42 175.488C181.801 175.488 182.126 175.406 182.396 175.242C182.665 175.078 182.885 174.853 183.055 174.565C183.231 174.272 183.36 173.936 183.442 173.555C183.524 173.174 183.565 172.77 183.565 172.342Z" fill="#422191"/>
<path d="M116.899 205.583V209.328H114.919V205.583H116.899ZM116.658 226.314V229.729H114.678V226.314H116.658ZM118.055 222.15C118.055 221.668 117.966 221.257 117.788 220.919C117.619 220.58 117.34 220.28 116.95 220.018C116.569 219.755 116.053 219.501 115.401 219.256C114.301 218.833 113.332 218.384 112.494 217.91C111.665 217.428 111.017 216.831 110.552 216.12C110.086 215.401 109.854 214.491 109.854 213.391C109.854 212.341 110.103 211.431 110.603 210.661C111.102 209.891 111.792 209.299 112.672 208.884C113.561 208.461 114.593 208.249 115.77 208.249C116.667 208.249 117.479 208.384 118.207 208.655C118.935 208.918 119.561 209.307 120.086 209.823C120.611 210.331 121.013 210.953 121.292 211.689C121.571 212.426 121.711 213.268 121.711 214.216H118.067C118.067 213.708 118.012 213.259 117.902 212.87C117.792 212.481 117.632 212.155 117.42 211.893C117.217 211.63 116.971 211.436 116.684 211.309C116.396 211.173 116.078 211.105 115.731 211.105C115.215 211.105 114.792 211.207 114.462 211.41C114.132 211.613 113.891 211.888 113.738 212.235C113.594 212.574 113.522 212.963 113.522 213.403C113.522 213.835 113.599 214.212 113.751 214.533C113.912 214.855 114.187 215.151 114.576 215.422C114.965 215.684 115.499 215.955 116.176 216.234C117.276 216.658 118.241 217.115 119.07 217.605C119.9 218.096 120.547 218.697 121.013 219.408C121.478 220.119 121.711 221.025 121.711 222.125C121.711 223.217 121.457 224.148 120.949 224.918C120.441 225.68 119.73 226.264 118.816 226.67C117.902 227.068 116.844 227.267 115.643 227.267C114.864 227.267 114.09 227.165 113.319 226.962C112.549 226.75 111.851 226.412 111.225 225.946C110.598 225.481 110.099 224.863 109.727 224.093C109.354 223.314 109.168 222.358 109.168 221.224H112.824C112.824 221.841 112.905 222.358 113.065 222.772C113.226 223.179 113.438 223.505 113.7 223.75C113.971 223.987 114.276 224.156 114.614 224.258C114.953 224.359 115.296 224.41 115.643 224.41C116.184 224.41 116.629 224.313 116.976 224.118C117.331 223.924 117.598 223.657 117.775 223.318C117.962 222.971 118.055 222.582 118.055 222.15ZM145.309 208.516V210.483L138.162 227H134.303L141.45 211.372H132.246V208.516H145.309ZM152.342 223.915L152.329 226.365C152.329 227.305 152.092 228.253 151.618 229.209C151.153 230.165 150.56 230.948 149.841 231.558L147.936 230.58C148.148 230.191 148.355 229.801 148.558 229.412C148.762 229.023 148.931 228.595 149.066 228.13C149.202 227.664 149.269 227.135 149.269 226.543V223.915H152.342ZM169.111 220.094V222.963H155.794L155.616 220.741L163.322 208.516H166.229L163.081 213.784L159.247 220.094H169.111ZM167.016 208.516V227H163.36V208.516H167.016ZM184.776 224.144V227H172.132V224.562L178.111 218.151C178.712 217.483 179.186 216.895 179.533 216.387C179.88 215.87 180.13 215.409 180.282 215.003C180.443 214.588 180.523 214.195 180.523 213.822C180.523 213.264 180.43 212.785 180.244 212.388C180.058 211.981 179.783 211.668 179.419 211.448C179.063 211.228 178.623 211.118 178.098 211.118C177.54 211.118 177.057 211.254 176.651 211.524C176.253 211.795 175.949 212.172 175.737 212.654C175.534 213.137 175.432 213.683 175.432 214.292H171.763C171.763 213.192 172.026 212.185 172.551 211.271C173.075 210.348 173.816 209.616 174.772 209.074C175.729 208.524 176.863 208.249 178.175 208.249C179.47 208.249 180.561 208.461 181.45 208.884C182.347 209.299 183.024 209.899 183.481 210.687C183.947 211.465 184.179 212.396 184.179 213.479C184.179 214.089 184.082 214.686 183.888 215.27C183.693 215.845 183.414 216.421 183.05 216.996C182.694 217.563 182.263 218.139 181.755 218.723C181.247 219.307 180.684 219.912 180.066 220.538L176.854 224.144H184.776ZM200.543 216.133V219.332C200.543 220.72 200.395 221.918 200.098 222.925C199.802 223.924 199.375 224.744 198.816 225.388C198.266 226.022 197.61 226.492 196.848 226.797C196.087 227.102 195.24 227.254 194.309 227.254C193.565 227.254 192.871 227.161 192.227 226.975C191.584 226.78 191.004 226.479 190.488 226.073C189.98 225.667 189.54 225.155 189.168 224.537C188.804 223.911 188.525 223.166 188.33 222.303C188.135 221.439 188.038 220.449 188.038 219.332V216.133C188.038 214.745 188.186 213.556 188.482 212.565C188.787 211.567 189.214 210.75 189.764 210.115C190.323 209.48 190.983 209.015 191.745 208.719C192.507 208.414 193.353 208.262 194.284 208.262C195.029 208.262 195.719 208.359 196.353 208.554C196.997 208.74 197.576 209.032 198.093 209.43C198.609 209.827 199.049 210.34 199.413 210.966C199.777 211.584 200.056 212.324 200.251 213.188C200.445 214.042 200.543 215.024 200.543 216.133ZM196.874 219.814V215.638C196.874 214.969 196.836 214.385 196.76 213.886C196.692 213.386 196.586 212.963 196.442 212.616C196.298 212.261 196.121 211.973 195.909 211.753C195.697 211.533 195.456 211.372 195.185 211.271C194.914 211.169 194.614 211.118 194.284 211.118C193.869 211.118 193.501 211.199 193.179 211.359C192.866 211.52 192.6 211.778 192.38 212.134C192.16 212.481 191.99 212.946 191.872 213.53C191.762 214.106 191.707 214.808 191.707 215.638V219.814C191.707 220.483 191.741 221.071 191.808 221.579C191.885 222.087 191.995 222.523 192.138 222.887C192.291 223.242 192.469 223.534 192.672 223.763C192.883 223.983 193.124 224.144 193.395 224.245C193.675 224.347 193.979 224.397 194.309 224.397C194.716 224.397 195.075 224.317 195.388 224.156C195.71 223.987 195.981 223.725 196.201 223.369C196.429 223.005 196.599 222.531 196.709 221.947C196.819 221.363 196.874 220.652 196.874 219.814ZM204.401 225.235C204.401 224.694 204.587 224.241 204.96 223.877C205.341 223.513 205.844 223.331 206.47 223.331C207.097 223.331 207.596 223.513 207.968 223.877C208.349 224.241 208.54 224.694 208.54 225.235C208.54 225.777 208.349 226.23 207.968 226.594C207.596 226.958 207.097 227.14 206.47 227.14C205.844 227.14 205.341 226.958 204.96 226.594C204.587 226.23 204.401 225.777 204.401 225.235ZM225.093 216.133V219.332C225.093 220.72 224.945 221.918 224.649 222.925C224.353 223.924 223.925 224.744 223.367 225.388C222.817 226.022 222.161 226.492 221.399 226.797C220.637 227.102 219.791 227.254 218.86 227.254C218.115 227.254 217.421 227.161 216.778 226.975C216.135 226.78 215.555 226.479 215.039 226.073C214.531 225.667 214.091 225.155 213.718 224.537C213.355 223.911 213.075 223.166 212.881 222.303C212.686 221.439 212.589 220.449 212.589 219.332V216.133C212.589 214.745 212.737 213.556 213.033 212.565C213.338 211.567 213.765 210.75 214.315 210.115C214.874 209.48 215.534 209.015 216.296 208.719C217.057 208.414 217.904 208.262 218.835 208.262C219.579 208.262 220.269 208.359 220.904 208.554C221.547 208.74 222.127 209.032 222.643 209.43C223.16 209.827 223.6 210.34 223.964 210.966C224.327 211.584 224.607 212.324 224.801 213.188C224.996 214.042 225.093 215.024 225.093 216.133ZM221.424 219.814V215.638C221.424 214.969 221.386 214.385 221.31 213.886C221.243 213.386 221.137 212.963 220.993 212.616C220.849 212.261 220.671 211.973 220.46 211.753C220.248 211.533 220.007 211.372 219.736 211.271C219.465 211.169 219.165 211.118 218.835 211.118C218.42 211.118 218.052 211.199 217.73 211.359C217.417 211.52 217.15 211.778 216.93 212.134C216.71 212.481 216.541 212.946 216.423 213.53C216.313 214.106 216.257 214.808 216.257 215.638V219.814C216.257 220.483 216.291 221.071 216.359 221.579C216.435 222.087 216.545 222.523 216.689 222.887C216.841 223.242 217.019 223.534 217.222 223.763C217.434 223.983 217.675 224.144 217.946 224.245C218.225 224.347 218.53 224.397 218.86 224.397C219.266 224.397 219.626 224.317 219.939 224.156C220.261 223.987 220.532 223.725 220.752 223.369C220.98 223.005 221.149 222.531 221.259 221.947C221.369 221.363 221.424 220.652 221.424 219.814ZM241.063 216.133V219.332C241.063 220.72 240.915 221.918 240.619 222.925C240.323 223.924 239.895 224.744 239.337 225.388C238.786 226.022 238.131 226.492 237.369 226.797C236.607 227.102 235.761 227.254 234.83 227.254C234.085 227.254 233.391 227.161 232.748 226.975C232.104 226.78 231.525 226.479 231.008 226.073C230.501 225.667 230.061 225.155 229.688 224.537C229.324 223.911 229.045 223.166 228.85 222.303C228.656 221.439 228.558 220.449 228.558 219.332V216.133C228.558 214.745 228.706 213.556 229.003 212.565C229.307 211.567 229.735 210.75 230.285 210.115C230.843 209.48 231.504 209.015 232.265 208.719C233.027 208.414 233.873 208.262 234.804 208.262C235.549 208.262 236.239 208.359 236.874 208.554C237.517 208.74 238.097 209.032 238.613 209.43C239.129 209.827 239.569 210.34 239.933 210.966C240.297 211.584 240.576 212.324 240.771 213.188C240.966 214.042 241.063 215.024 241.063 216.133ZM237.394 219.814V215.638C237.394 214.969 237.356 214.385 237.28 213.886C237.212 213.386 237.106 212.963 236.963 212.616C236.819 212.261 236.641 211.973 236.429 211.753C236.218 211.533 235.977 211.372 235.706 211.271C235.435 211.169 235.134 211.118 234.804 211.118C234.39 211.118 234.021 211.199 233.7 211.359C233.387 211.52 233.12 211.778 232.9 212.134C232.68 212.481 232.511 212.946 232.392 213.53C232.282 214.106 232.227 214.808 232.227 215.638V219.814C232.227 220.483 232.261 221.071 232.329 221.579C232.405 222.087 232.515 222.523 232.659 222.887C232.811 223.242 232.989 223.534 233.192 223.763C233.404 223.983 233.645 224.144 233.916 224.245C234.195 224.347 234.5 224.397 234.83 224.397C235.236 224.397 235.596 224.317 235.909 224.156C236.23 223.987 236.501 223.725 236.721 223.369C236.95 223.005 237.119 222.531 237.229 221.947C237.339 221.363 237.394 220.652 237.394 219.814Z" fill="#772AC7"/>
<path d="M115.875 277.297H117.828C117.766 278.042 117.557 278.706 117.203 279.289C116.849 279.867 116.352 280.323 115.711 280.656C115.07 280.99 114.292 281.156 113.375 281.156C112.672 281.156 112.039 281.031 111.477 280.781C110.914 280.526 110.432 280.167 110.031 279.703C109.63 279.234 109.323 278.669 109.109 278.008C108.901 277.346 108.797 276.607 108.797 275.789V274.844C108.797 274.026 108.904 273.286 109.117 272.625C109.336 271.964 109.648 271.398 110.055 270.93C110.461 270.456 110.948 270.094 111.516 269.844C112.089 269.594 112.732 269.469 113.445 269.469C114.352 269.469 115.117 269.635 115.742 269.969C116.367 270.302 116.852 270.763 117.195 271.352C117.544 271.94 117.758 272.615 117.836 273.375H115.883C115.831 272.885 115.716 272.466 115.539 272.117C115.367 271.768 115.112 271.503 114.773 271.32C114.435 271.133 113.992 271.039 113.445 271.039C112.997 271.039 112.607 271.122 112.273 271.289C111.94 271.456 111.661 271.701 111.438 272.023C111.214 272.346 111.044 272.745 110.93 273.219C110.82 273.688 110.766 274.224 110.766 274.828V275.789C110.766 276.362 110.815 276.883 110.914 277.352C111.018 277.815 111.174 278.214 111.383 278.547C111.596 278.88 111.867 279.138 112.195 279.32C112.523 279.503 112.917 279.594 113.375 279.594C113.932 279.594 114.383 279.505 114.727 279.328C115.076 279.151 115.339 278.893 115.516 278.555C115.698 278.211 115.818 277.792 115.875 277.297ZM124.188 279.305V275.273C124.188 274.971 124.133 274.711 124.023 274.492C123.914 274.273 123.747 274.104 123.523 273.984C123.305 273.865 123.029 273.805 122.695 273.805C122.388 273.805 122.122 273.857 121.898 273.961C121.674 274.065 121.5 274.206 121.375 274.383C121.25 274.56 121.188 274.76 121.188 274.984H119.312C119.312 274.651 119.393 274.328 119.555 274.016C119.716 273.703 119.951 273.424 120.258 273.18C120.565 272.935 120.932 272.742 121.359 272.602C121.786 272.461 122.266 272.391 122.797 272.391C123.432 272.391 123.995 272.497 124.484 272.711C124.979 272.924 125.367 273.247 125.648 273.68C125.935 274.107 126.078 274.643 126.078 275.289V279.047C126.078 279.432 126.104 279.779 126.156 280.086C126.214 280.388 126.294 280.651 126.398 280.875V281H124.469C124.38 280.797 124.31 280.539 124.258 280.227C124.211 279.909 124.188 279.602 124.188 279.305ZM124.461 275.859L124.477 277.023H123.125C122.776 277.023 122.469 277.057 122.203 277.125C121.938 277.188 121.716 277.281 121.539 277.406C121.362 277.531 121.229 277.682 121.141 277.859C121.052 278.036 121.008 278.237 121.008 278.461C121.008 278.685 121.06 278.891 121.164 279.078C121.268 279.26 121.419 279.404 121.617 279.508C121.82 279.612 122.065 279.664 122.352 279.664C122.737 279.664 123.073 279.586 123.359 279.43C123.651 279.268 123.88 279.073 124.047 278.844C124.214 278.609 124.302 278.388 124.312 278.18L124.922 279.016C124.859 279.229 124.753 279.458 124.602 279.703C124.451 279.948 124.253 280.182 124.008 280.406C123.768 280.625 123.479 280.805 123.141 280.945C122.807 281.086 122.422 281.156 121.984 281.156C121.432 281.156 120.94 281.047 120.508 280.828C120.076 280.604 119.737 280.305 119.492 279.93C119.247 279.549 119.125 279.12 119.125 278.641C119.125 278.193 119.208 277.797 119.375 277.453C119.547 277.104 119.797 276.812 120.125 276.578C120.458 276.344 120.865 276.167 121.344 276.047C121.823 275.922 122.37 275.859 122.984 275.859H124.461ZM129.938 274.156V281H128.055V272.547H129.852L129.938 274.156ZM132.523 272.492L132.508 274.242C132.393 274.221 132.268 274.206 132.133 274.195C132.003 274.185 131.872 274.18 131.742 274.18C131.419 274.18 131.135 274.227 130.891 274.32C130.646 274.409 130.44 274.539 130.273 274.711C130.112 274.878 129.987 275.081 129.898 275.32C129.81 275.56 129.758 275.828 129.742 276.125L129.312 276.156C129.312 275.625 129.365 275.133 129.469 274.68C129.573 274.227 129.729 273.828 129.938 273.484C130.151 273.141 130.417 272.872 130.734 272.68C131.057 272.487 131.43 272.391 131.852 272.391C131.966 272.391 132.089 272.401 132.219 272.422C132.354 272.443 132.456 272.466 132.523 272.492ZM138.703 279.25V269H140.594V281H138.883L138.703 279.25ZM133.203 276.867V276.703C133.203 276.062 133.279 275.479 133.43 274.953C133.581 274.422 133.799 273.966 134.086 273.586C134.372 273.201 134.721 272.906 135.133 272.703C135.544 272.495 136.008 272.391 136.523 272.391C137.034 272.391 137.482 272.49 137.867 272.688C138.253 272.885 138.581 273.169 138.852 273.539C139.122 273.904 139.339 274.341 139.5 274.852C139.661 275.357 139.776 275.919 139.844 276.539V277.062C139.776 277.667 139.661 278.219 139.5 278.719C139.339 279.219 139.122 279.651 138.852 280.016C138.581 280.38 138.25 280.661 137.859 280.859C137.474 281.057 137.023 281.156 136.508 281.156C135.997 281.156 135.536 281.049 135.125 280.836C134.719 280.622 134.372 280.323 134.086 279.938C133.799 279.552 133.581 279.099 133.43 278.578C133.279 278.052 133.203 277.482 133.203 276.867ZM135.086 276.703V276.867C135.086 277.253 135.12 277.612 135.188 277.945C135.26 278.279 135.372 278.573 135.523 278.828C135.674 279.078 135.87 279.276 136.109 279.422C136.354 279.562 136.646 279.633 136.984 279.633C137.411 279.633 137.763 279.539 138.039 279.352C138.315 279.164 138.531 278.911 138.688 278.594C138.849 278.271 138.958 277.911 139.016 277.516V276.102C138.984 275.794 138.919 275.508 138.82 275.242C138.727 274.977 138.599 274.745 138.438 274.547C138.276 274.344 138.076 274.188 137.836 274.078C137.602 273.964 137.323 273.906 137 273.906C136.656 273.906 136.365 273.979 136.125 274.125C135.885 274.271 135.688 274.471 135.531 274.727C135.38 274.982 135.268 275.279 135.195 275.617C135.122 275.956 135.086 276.318 135.086 276.703ZM155.758 269.625V281H153.797L148.695 272.852V281H146.734V269.625H148.695L153.812 277.789V269.625H155.758ZM162.992 279.008V272.547H164.883V281H163.102L162.992 279.008ZM163.258 277.25L163.891 277.234C163.891 277.802 163.828 278.326 163.703 278.805C163.578 279.279 163.385 279.693 163.125 280.047C162.865 280.396 162.531 280.669 162.125 280.867C161.719 281.06 161.232 281.156 160.664 281.156C160.253 281.156 159.875 281.096 159.531 280.977C159.188 280.857 158.891 280.672 158.641 280.422C158.396 280.172 158.206 279.846 158.07 279.445C157.935 279.044 157.867 278.565 157.867 278.008V272.547H159.75V278.023C159.75 278.331 159.786 278.589 159.859 278.797C159.932 279 160.031 279.164 160.156 279.289C160.281 279.414 160.427 279.503 160.594 279.555C160.76 279.607 160.938 279.633 161.125 279.633C161.661 279.633 162.083 279.529 162.391 279.32C162.703 279.107 162.924 278.82 163.055 278.461C163.19 278.102 163.258 277.698 163.258 277.25ZM168.695 274.266V281H166.812V272.547H168.586L168.695 274.266ZM168.391 276.461L167.75 276.453C167.75 275.87 167.823 275.331 167.969 274.836C168.115 274.341 168.328 273.911 168.609 273.547C168.891 273.177 169.24 272.893 169.656 272.695C170.078 272.492 170.565 272.391 171.117 272.391C171.503 272.391 171.854 272.448 172.172 272.562C172.495 272.672 172.773 272.846 173.008 273.086C173.247 273.326 173.43 273.633 173.555 274.008C173.685 274.383 173.75 274.836 173.75 275.367V281H171.867V275.531C171.867 275.12 171.805 274.797 171.68 274.562C171.56 274.328 171.385 274.161 171.156 274.062C170.932 273.958 170.664 273.906 170.352 273.906C169.997 273.906 169.695 273.974 169.445 274.109C169.201 274.245 169 274.43 168.844 274.664C168.688 274.898 168.573 275.169 168.5 275.477C168.427 275.784 168.391 276.112 168.391 276.461ZM173.633 275.961L172.75 276.156C172.75 275.646 172.82 275.164 172.961 274.711C173.107 274.253 173.318 273.852 173.594 273.508C173.875 273.159 174.221 272.885 174.633 272.688C175.044 272.49 175.516 272.391 176.047 272.391C176.479 272.391 176.865 272.451 177.203 272.57C177.547 272.685 177.839 272.867 178.078 273.117C178.318 273.367 178.5 273.693 178.625 274.094C178.75 274.49 178.812 274.969 178.812 275.531V281H176.922V275.523C176.922 275.096 176.859 274.766 176.734 274.531C176.615 274.297 176.443 274.135 176.219 274.047C175.995 273.953 175.727 273.906 175.414 273.906C175.122 273.906 174.865 273.961 174.641 274.07C174.422 274.174 174.237 274.323 174.086 274.516C173.935 274.703 173.82 274.919 173.742 275.164C173.669 275.409 173.633 275.674 173.633 275.961ZM180.758 269H182.641V279.195L182.461 281H180.758V269ZM188.156 276.695V276.859C188.156 277.484 188.086 278.06 187.945 278.586C187.81 279.107 187.602 279.56 187.32 279.945C187.044 280.331 186.701 280.63 186.289 280.844C185.883 281.052 185.411 281.156 184.875 281.156C184.349 281.156 183.891 281.057 183.5 280.859C183.109 280.661 182.781 280.38 182.516 280.016C182.255 279.651 182.044 279.216 181.883 278.711C181.721 278.206 181.607 277.648 181.539 277.039V276.516C181.607 275.901 181.721 275.344 181.883 274.844C182.044 274.339 182.255 273.904 182.516 273.539C182.781 273.169 183.107 272.885 183.492 272.688C183.883 272.49 184.339 272.391 184.859 272.391C185.401 272.391 185.878 272.495 186.289 272.703C186.706 272.911 187.052 273.208 187.328 273.594C187.604 273.974 187.81 274.427 187.945 274.953C188.086 275.479 188.156 276.06 188.156 276.695ZM186.273 276.859V276.695C186.273 276.315 186.242 275.958 186.18 275.625C186.117 275.286 186.013 274.99 185.867 274.734C185.727 274.479 185.534 274.279 185.289 274.133C185.049 273.982 184.75 273.906 184.391 273.906C184.057 273.906 183.771 273.964 183.531 274.078C183.292 274.193 183.091 274.349 182.93 274.547C182.768 274.745 182.641 274.974 182.547 275.234C182.458 275.495 182.398 275.776 182.367 276.078V277.492C182.414 277.883 182.513 278.242 182.664 278.57C182.82 278.893 183.039 279.154 183.32 279.352C183.602 279.544 183.964 279.641 184.406 279.641C184.755 279.641 185.049 279.57 185.289 279.43C185.529 279.289 185.719 279.094 185.859 278.844C186.005 278.589 186.109 278.292 186.172 277.953C186.24 277.615 186.273 277.25 186.273 276.859ZM193.477 281.156C192.852 281.156 192.286 281.055 191.781 280.852C191.281 280.643 190.854 280.354 190.5 279.984C190.151 279.615 189.883 279.18 189.695 278.68C189.508 278.18 189.414 277.641 189.414 277.062V276.75C189.414 276.089 189.51 275.49 189.703 274.953C189.896 274.417 190.164 273.958 190.508 273.578C190.852 273.193 191.258 272.898 191.727 272.695C192.195 272.492 192.703 272.391 193.25 272.391C193.854 272.391 194.383 272.492 194.836 272.695C195.289 272.898 195.664 273.185 195.961 273.555C196.263 273.919 196.487 274.354 196.633 274.859C196.784 275.365 196.859 275.922 196.859 276.531V277.336H190.328V275.984H195V275.836C194.99 275.497 194.922 275.18 194.797 274.883C194.677 274.586 194.492 274.346 194.242 274.164C193.992 273.982 193.659 273.891 193.242 273.891C192.93 273.891 192.651 273.958 192.406 274.094C192.167 274.224 191.966 274.414 191.805 274.664C191.643 274.914 191.518 275.216 191.43 275.57C191.346 275.919 191.305 276.312 191.305 276.75V277.062C191.305 277.432 191.354 277.776 191.453 278.094C191.557 278.406 191.708 278.68 191.906 278.914C192.104 279.148 192.344 279.333 192.625 279.469C192.906 279.599 193.227 279.664 193.586 279.664C194.039 279.664 194.443 279.573 194.797 279.391C195.151 279.208 195.458 278.951 195.719 278.617L196.711 279.578C196.529 279.844 196.292 280.099 196 280.344C195.708 280.583 195.352 280.779 194.93 280.93C194.513 281.081 194.029 281.156 193.477 281.156ZM200.219 274.156V281H198.336V272.547H200.133L200.219 274.156ZM202.805 272.492L202.789 274.242C202.674 274.221 202.549 274.206 202.414 274.195C202.284 274.185 202.154 274.18 202.023 274.18C201.701 274.18 201.417 274.227 201.172 274.32C200.927 274.409 200.721 274.539 200.555 274.711C200.393 274.878 200.268 275.081 200.18 275.32C200.091 275.56 200.039 275.828 200.023 276.125L199.594 276.156C199.594 275.625 199.646 275.133 199.75 274.68C199.854 274.227 200.01 273.828 200.219 273.484C200.432 273.141 200.698 272.872 201.016 272.68C201.339 272.487 201.711 272.391 202.133 272.391C202.247 272.391 202.37 272.401 202.5 272.422C202.635 272.443 202.737 272.466 202.805 272.492Z" fill="#3B0E90"/>
<path d="M109.375 308.491L111.631 305.537L108.301 304.57L108.87 302.809L112.179 304.076L112.028 300.349H113.897L113.726 304.151L116.98 302.884L117.55 304.678L114.155 305.655L116.357 308.545L114.843 309.641L112.855 306.525L110.9 309.555L109.375 308.491ZM120.009 308.491L122.265 305.537L118.935 304.57L119.504 302.809L122.813 304.076L122.662 300.349H124.531L124.359 304.151L127.614 302.884L128.184 304.678L124.789 305.655L126.991 308.545L125.477 309.641L123.489 306.525L121.534 309.555L120.009 308.491ZM130.643 308.491L132.899 305.537L129.569 304.57L130.138 302.809L133.447 304.076L133.296 300.349H135.165L134.993 304.151L138.248 302.884L138.818 304.678L135.423 305.655L137.625 308.545L136.111 309.641L134.123 306.525L132.168 309.555L130.643 308.491ZM141.277 308.491L143.533 305.537L140.202 304.57L140.772 302.809L144.08 304.076L143.93 300.349H145.799L145.627 304.151L148.882 302.884L149.452 304.678L146.057 305.655L148.259 308.545L146.744 309.641L144.757 306.525L142.802 309.555L141.277 308.491ZM158.269 308.491L160.525 305.537L157.195 304.57L157.764 302.809L161.073 304.076L160.922 300.349H162.792L162.62 304.151L165.875 302.884L166.444 304.678L163.049 305.655L165.252 308.545L163.737 309.641L161.75 306.525L159.795 309.555L158.269 308.491ZM168.903 308.491L171.159 305.537L167.829 304.57L168.398 302.809L171.707 304.076L171.556 300.349H173.426L173.254 304.151L176.509 302.884L177.078 304.678L173.683 305.655L175.885 308.545L174.371 309.641L172.384 306.525L170.428 309.555L168.903 308.491ZM179.537 308.491L181.793 305.537L178.463 304.57L179.032 302.809L182.341 304.076L182.19 300.349H184.059L183.888 304.151L187.142 302.884L187.712 304.678L184.317 305.655L186.519 308.545L185.005 309.641L183.017 306.525L181.062 309.555L179.537 308.491ZM190.171 308.491L192.427 305.537L189.097 304.57L189.666 302.809L192.975 304.076L192.824 300.349H194.693L194.521 304.151L197.776 302.884L198.346 304.678L194.951 305.655L197.153 308.545L195.639 309.641L193.651 306.525L191.696 309.555L190.171 308.491ZM207.163 308.491L209.419 305.537L206.089 304.57L206.658 302.809L209.967 304.076L209.817 300.349H211.686L211.514 304.151L214.769 302.884L215.338 304.678L211.944 305.655L214.146 308.545L212.631 309.641L210.644 306.525L208.689 309.555L207.163 308.491ZM217.797 308.491L220.053 305.537L216.723 304.57L217.292 302.809L220.601 304.076L220.451 300.349H222.32L222.148 304.151L225.403 302.884L225.972 304.678L222.577 305.655L224.78 308.545L223.265 309.641L221.278 306.525L219.323 309.555L217.797 308.491ZM228.431 308.491L230.687 305.537L227.357 304.57L227.926 302.809L231.235 304.076L231.084 300.349H232.954L232.782 304.151L236.037 302.884L236.606 304.678L233.211 305.655L235.414 308.545L233.899 309.641L231.912 306.525L229.956 309.555L228.431 308.491ZM239.065 308.491L241.321 305.537L237.991 304.57L238.56 302.809L241.869 304.076L241.718 300.349H243.587L243.416 304.151L246.67 302.884L247.24 304.678L243.845 305.655L246.047 308.545L244.533 309.641L242.545 306.525L240.59 309.555L239.065 308.491ZM262.932 300.306V316H260.344V303.378L256.509 304.678V302.54L262.621 300.306H262.932ZM279.732 313.938V316H269.248V314.228L274.34 308.674C274.898 308.044 275.339 307.499 275.661 307.041C275.983 306.583 276.209 306.171 276.338 305.806C276.474 305.433 276.542 305.072 276.542 304.721C276.542 304.227 276.449 303.793 276.263 303.421C276.084 303.041 275.819 302.744 275.468 302.529C275.117 302.307 274.691 302.196 274.189 302.196C273.609 302.196 273.122 302.322 272.728 302.572C272.335 302.823 272.037 303.17 271.837 303.614C271.636 304.051 271.536 304.552 271.536 305.118H268.947C268.947 304.209 269.155 303.378 269.57 302.626C269.986 301.867 270.587 301.265 271.375 300.821C272.163 300.37 273.112 300.145 274.222 300.145C275.267 300.145 276.155 300.32 276.886 300.671C277.616 301.022 278.171 301.52 278.551 302.164C278.937 302.809 279.131 303.571 279.131 304.452C279.131 304.939 279.052 305.423 278.894 305.902C278.737 306.382 278.511 306.862 278.218 307.342C277.931 307.814 277.591 308.291 277.197 308.771C276.803 309.243 276.37 309.723 275.897 310.21L272.514 313.938H279.732ZM285.672 307.009H287.219C287.82 307.009 288.318 306.905 288.712 306.697C289.113 306.49 289.41 306.203 289.604 305.838C289.797 305.473 289.894 305.054 289.894 304.581C289.894 304.087 289.804 303.664 289.625 303.313C289.453 302.955 289.188 302.68 288.83 302.486C288.479 302.293 288.032 302.196 287.487 302.196C287.029 302.196 286.614 302.289 286.241 302.476C285.876 302.655 285.586 302.912 285.371 303.249C285.156 303.578 285.049 303.972 285.049 304.431H282.449C282.449 303.6 282.668 302.862 283.105 302.218C283.541 301.573 284.136 301.068 284.888 300.703C285.647 300.331 286.499 300.145 287.444 300.145C288.454 300.145 289.335 300.313 290.087 300.649C290.846 300.979 291.437 301.473 291.859 302.132C292.282 302.791 292.493 303.607 292.493 304.581C292.493 305.025 292.389 305.476 292.182 305.935C291.974 306.393 291.666 306.812 291.258 307.191C290.85 307.564 290.341 307.868 289.732 308.104C289.124 308.334 288.418 308.448 287.616 308.448H285.672V307.009ZM285.672 309.028V307.61H287.616C288.533 307.61 289.314 307.718 289.958 307.933C290.61 308.147 291.14 308.445 291.548 308.824C291.956 309.197 292.253 309.623 292.439 310.103C292.633 310.582 292.73 311.091 292.73 311.628C292.73 312.358 292.597 313.01 292.332 313.583C292.074 314.149 291.705 314.629 291.226 315.022C290.746 315.416 290.184 315.714 289.539 315.914C288.902 316.115 288.207 316.215 287.455 316.215C286.782 316.215 286.137 316.122 285.522 315.936C284.906 315.749 284.354 315.474 283.867 315.108C283.38 314.736 282.994 314.274 282.707 313.723C282.428 313.164 282.288 312.52 282.288 311.789H284.877C284.877 312.255 284.984 312.666 285.199 313.024C285.421 313.375 285.729 313.651 286.123 313.852C286.524 314.052 286.982 314.152 287.498 314.152C288.042 314.152 288.511 314.056 288.905 313.862C289.299 313.669 289.6 313.382 289.808 313.003C290.023 312.623 290.13 312.165 290.13 311.628C290.13 311.019 290.012 310.525 289.775 310.146C289.539 309.766 289.203 309.487 288.766 309.308C288.329 309.121 287.813 309.028 287.219 309.028H285.672ZM306.79 310.425V312.487H295.511L295.425 310.93L302.171 300.359H304.244L301.999 304.205L298.121 310.425H306.79ZM304.835 300.359V316H302.246V300.359H304.835Z" fill="#3B0E90"/>
<path d="M110.375 342.516H110.531C111.25 342.516 111.849 342.422 112.328 342.234C112.812 342.042 113.198 341.776 113.484 341.438C113.771 341.099 113.977 340.701 114.102 340.242C114.227 339.784 114.289 339.286 114.289 338.75V336.789C114.289 336.326 114.24 335.919 114.141 335.57C114.047 335.216 113.911 334.922 113.734 334.688C113.562 334.448 113.362 334.268 113.133 334.148C112.909 334.029 112.667 333.969 112.406 333.969C112.12 333.969 111.862 334.034 111.633 334.164C111.409 334.289 111.219 334.464 111.062 334.688C110.911 334.906 110.794 335.164 110.711 335.461C110.633 335.753 110.594 336.065 110.594 336.398C110.594 336.711 110.63 337.013 110.703 337.305C110.781 337.591 110.896 337.846 111.047 338.07C111.198 338.294 111.388 338.471 111.617 338.602C111.846 338.732 112.115 338.797 112.422 338.797C112.714 338.797 112.982 338.742 113.227 338.633C113.471 338.518 113.685 338.365 113.867 338.172C114.049 337.979 114.193 337.763 114.297 337.523C114.401 337.284 114.458 337.039 114.469 336.789L115.188 337.008C115.188 337.404 115.104 337.794 114.938 338.18C114.776 338.56 114.549 338.909 114.258 339.227C113.971 339.539 113.635 339.789 113.25 339.977C112.87 340.164 112.456 340.258 112.008 340.258C111.466 340.258 110.987 340.156 110.57 339.953C110.159 339.745 109.815 339.464 109.539 339.109C109.268 338.755 109.065 338.349 108.93 337.891C108.794 337.432 108.727 336.951 108.727 336.445C108.727 335.898 108.81 335.385 108.977 334.906C109.143 334.427 109.385 334.005 109.703 333.641C110.021 333.271 110.406 332.984 110.859 332.781C111.318 332.573 111.836 332.469 112.414 332.469C113.029 332.469 113.568 332.589 114.031 332.828C114.495 333.068 114.885 333.398 115.203 333.82C115.521 334.242 115.76 334.732 115.922 335.289C116.083 335.846 116.164 336.445 116.164 337.086V337.75C116.164 338.422 116.104 339.07 115.984 339.695C115.865 340.315 115.669 340.891 115.398 341.422C115.133 341.948 114.781 342.411 114.344 342.812C113.911 343.208 113.38 343.518 112.75 343.742C112.125 343.961 111.391 344.07 110.547 344.07H110.375V342.516ZM123.008 332.625L118.578 344.977H117.102L121.539 332.625H123.008ZM131.828 342.5V344H124.203V342.711L127.906 338.672C128.312 338.214 128.633 337.818 128.867 337.484C129.102 337.151 129.266 336.852 129.359 336.586C129.458 336.315 129.508 336.052 129.508 335.797C129.508 335.438 129.44 335.122 129.305 334.852C129.174 334.576 128.982 334.359 128.727 334.203C128.471 334.042 128.161 333.961 127.797 333.961C127.375 333.961 127.021 334.052 126.734 334.234C126.448 334.417 126.232 334.669 126.086 334.992C125.94 335.31 125.867 335.674 125.867 336.086H123.984C123.984 335.424 124.135 334.82 124.438 334.273C124.74 333.721 125.177 333.284 125.75 332.961C126.323 332.633 127.013 332.469 127.82 332.469C128.581 332.469 129.227 332.596 129.758 332.852C130.289 333.107 130.693 333.469 130.969 333.938C131.25 334.406 131.391 334.961 131.391 335.602C131.391 335.956 131.333 336.307 131.219 336.656C131.104 337.005 130.94 337.354 130.727 337.703C130.518 338.047 130.271 338.393 129.984 338.742C129.698 339.086 129.383 339.435 129.039 339.789L126.578 342.5H131.828ZM138.438 332.586V344H136.555V334.82L133.766 335.766V334.211L138.211 332.586H138.438Z" fill="#000086"/>
<path d="M456.706 350.009H458.253C458.854 350.009 459.352 349.905 459.746 349.697C460.147 349.49 460.444 349.203 460.638 348.838C460.831 348.473 460.928 348.054 460.928 347.581C460.928 347.087 460.838 346.664 460.659 346.313C460.487 345.955 460.222 345.68 459.864 345.486C459.513 345.293 459.066 345.196 458.521 345.196C458.063 345.196 457.648 345.289 457.275 345.476C456.91 345.655 456.62 345.912 456.405 346.249C456.19 346.578 456.083 346.972 456.083 347.431H453.483C453.483 346.6 453.702 345.862 454.139 345.218C454.576 344.573 455.17 344.068 455.922 343.703C456.681 343.331 457.533 343.145 458.479 343.145C459.488 343.145 460.369 343.313 461.121 343.649C461.88 343.979 462.471 344.473 462.894 345.132C463.316 345.791 463.527 346.607 463.527 347.581C463.527 348.025 463.424 348.476 463.216 348.935C463.008 349.393 462.7 349.812 462.292 350.191C461.884 350.564 461.375 350.868 460.767 351.104C460.158 351.334 459.452 351.448 458.65 351.448H456.706V350.009ZM456.706 352.028V350.61H458.65C459.567 350.61 460.348 350.718 460.992 350.933C461.644 351.147 462.174 351.445 462.582 351.824C462.99 352.197 463.287 352.623 463.474 353.103C463.667 353.582 463.764 354.091 463.764 354.628C463.764 355.358 463.631 356.01 463.366 356.583C463.108 357.149 462.74 357.629 462.26 358.022C461.78 358.416 461.218 358.714 460.573 358.914C459.936 359.115 459.241 359.215 458.489 359.215C457.816 359.215 457.172 359.122 456.556 358.936C455.94 358.749 455.388 358.474 454.901 358.108C454.414 357.736 454.028 357.274 453.741 356.723C453.462 356.164 453.322 355.52 453.322 354.789H455.911C455.911 355.255 456.019 355.666 456.233 356.024C456.455 356.375 456.763 356.651 457.157 356.852C457.558 357.052 458.017 357.152 458.532 357.152C459.076 357.152 459.546 357.056 459.939 356.862C460.333 356.669 460.634 356.382 460.842 356.003C461.057 355.623 461.164 355.165 461.164 354.628C461.164 354.019 461.046 353.525 460.81 353.146C460.573 352.766 460.237 352.487 459.8 352.308C459.363 352.121 458.847 352.028 458.253 352.028H456.706ZM466.428 357.711C466.428 357.31 466.564 356.973 466.836 356.701C467.108 356.422 467.477 356.282 467.942 356.282C468.415 356.282 468.784 356.422 469.049 356.701C469.321 356.973 469.457 357.31 469.457 357.711C469.457 358.112 469.321 358.449 469.049 358.721C468.784 358.993 468.415 359.129 467.942 359.129C467.477 359.129 467.108 358.993 466.836 358.721C466.564 358.449 466.428 358.112 466.428 357.711ZM475.011 351.728L472.948 351.223L473.797 343.359H482.229V345.551H475.945L475.516 349.386C475.759 349.243 476.096 349.103 476.525 348.967C476.955 348.824 477.446 348.752 477.997 348.752C478.735 348.752 479.394 348.874 479.974 349.117C480.561 349.354 481.059 349.701 481.467 350.159C481.875 350.61 482.187 351.162 482.401 351.813C482.616 352.458 482.724 353.185 482.724 353.994C482.724 354.717 482.616 355.394 482.401 356.024C482.194 356.655 481.879 357.21 481.456 357.689C481.034 358.169 480.5 358.545 479.855 358.817C479.218 359.082 478.463 359.215 477.589 359.215C476.937 359.215 476.311 359.122 475.709 358.936C475.115 358.742 474.581 358.459 474.108 358.087C473.636 357.707 473.256 357.242 472.97 356.69C472.683 356.132 472.519 355.491 472.476 354.768H475.011C475.075 355.276 475.215 355.709 475.43 356.067C475.652 356.418 475.945 356.687 476.311 356.873C476.676 357.059 477.098 357.152 477.578 357.152C478.015 357.152 478.391 357.077 478.706 356.927C479.021 356.769 479.283 356.547 479.49 356.261C479.705 355.967 479.863 355.623 479.963 355.229C480.07 354.836 480.124 354.399 480.124 353.919C480.124 353.461 480.063 353.042 479.941 352.662C479.827 352.283 479.651 351.953 479.415 351.674C479.186 351.395 478.896 351.18 478.545 351.029C478.194 350.872 477.789 350.793 477.331 350.793C476.715 350.793 476.243 350.882 475.913 351.062C475.591 351.241 475.29 351.463 475.011 351.728ZM487.901 343.359V359H485.205V343.359H487.901ZM497.301 343.359L490.963 350.89L487.354 354.714L486.881 352.039L489.459 348.859L494.014 343.359H497.301ZM494.4 359L489.255 351.588L491.113 349.751L497.602 359H494.4Z" fill="#6D22BB"/>
<g clip-path="url(#clip0_0_1)">
<path d="M684 166.501V160H682.4V166.501C681.713 166.679 681.105 167.079 680.67 167.64C680.236 168.201 680 168.891 680 169.6C680 170.309 680.236 170.999 680.67 171.56C681.105 172.121 681.713 172.521 682.4 172.699V184H684V172.699C684.687 172.521 685.295 172.121 685.73 171.56C686.164 170.999 686.4 170.309 686.4 169.6C686.4 168.891 686.164 168.201 685.73 167.64C685.295 167.079 684.687 166.679 684 166.501ZM683.2 171.2C682.884 171.2 682.574 171.106 682.311 170.93C682.048 170.755 681.843 170.505 681.722 170.212C681.601 169.92 681.569 169.598 681.631 169.288C681.693 168.977 681.845 168.692 682.069 168.469C682.292 168.245 682.578 168.092 682.888 168.031C683.198 167.969 683.52 168.001 683.812 168.122C684.105 168.243 684.355 168.448 684.53 168.711C684.706 168.974 684.8 169.284 684.8 169.6C684.8 170.024 684.631 170.431 684.331 170.731C684.031 171.031 683.624 171.2 683.2 171.2ZM692.8 173.701V160H691.2V173.701C690.513 173.879 689.905 174.279 689.47 174.84C689.036 175.401 688.8 176.091 688.8 176.8C688.8 177.509 689.036 178.199 689.47 178.76C689.905 179.321 690.513 179.721 691.2 179.899V184H692.8V179.899C693.487 179.721 694.095 179.321 694.53 178.76C694.964 178.199 695.2 177.509 695.2 176.8C695.2 176.091 694.964 175.401 694.53 174.84C694.095 174.279 693.487 173.879 692.8 173.701ZM692 178.4C691.684 178.4 691.374 178.306 691.111 178.13C690.848 177.955 690.643 177.705 690.522 177.412C690.401 177.12 690.369 176.798 690.431 176.488C690.492 176.177 690.645 175.892 690.869 175.669C691.092 175.445 691.377 175.292 691.688 175.231C691.998 175.169 692.32 175.201 692.612 175.322C692.905 175.443 693.155 175.648 693.33 175.911C693.506 176.174 693.6 176.484 693.6 176.8C693.6 177.224 693.431 177.631 693.131 177.931C692.831 178.231 692.424 178.4 692 178.4ZM701.6 163.301V160H700V163.301C699.313 163.479 698.705 163.879 698.27 164.44C697.836 165.001 697.6 165.691 697.6 166.4C697.6 167.109 697.836 167.799 698.27 168.36C698.705 168.921 699.313 169.321 700 169.499V184H701.6V169.499C702.287 169.321 702.895 168.921 703.33 168.36C703.764 167.799 704 167.109 704 166.4C704 165.691 703.764 165.001 703.33 164.44C702.895 163.879 702.287 163.479 701.6 163.301ZM700.8 168C700.484 168 700.174 167.906 699.911 167.73C699.648 167.555 699.443 167.305 699.322 167.012C699.201 166.72 699.169 166.398 699.231 166.088C699.292 165.777 699.445 165.492 699.669 165.269C699.892 165.045 700.177 164.892 700.488 164.831C700.798 164.769 701.12 164.801 701.412 164.922C701.705 165.043 701.954 165.248 702.13 165.511C702.306 165.774 702.4 166.084 702.4 166.4C702.399 166.824 702.231 167.231 701.931 167.531C701.631 167.831 701.224 168 700.8 168Z" fill="#6B0CB2"/>
</g>
<path d="M175.412 337.184C175.399 338.572 176.374 339.346 177.109 339.806C177.865 340.278 178.118 340.581 178.115 341.004C178.11 341.65 177.513 341.935 176.955 341.946C175.98 341.966 175.414 341.608 174.963 341.338L174.612 343.449C175.064 343.716 175.901 343.95 176.768 343.96C178.805 343.96 180.138 342.668 180.145 340.665C180.153 338.122 177.409 337.982 177.427 336.845C177.434 336.501 177.69 336.133 178.25 336.039C178.528 335.992 179.294 335.956 180.162 336.47L180.503 334.428C180.036 334.209 179.436 334 178.688 334C176.771 334 175.423 335.31 175.412 337.184ZM183.779 334.176C183.407 334.176 183.093 334.455 182.953 334.882L180.044 343.81H182.079L182.484 342.372H184.971L185.206 343.81H187L185.435 334.176H183.779ZM184.063 336.778L184.651 340.396H183.042L184.063 336.778ZM172.945 334.176L171.34 343.81H173.28L174.883 334.176L172.945 334.176ZM170.076 334.176L168.057 340.733L167.24 335.158C167.145 334.535 166.766 334.176 166.346 334.176H163.046L163 334.456C163.677 334.645 164.447 334.949 164.913 335.275C165.199 335.474 165.28 335.649 165.374 336.122L166.921 343.81H168.97L172.112 334.176L170.076 334.176Z" fill="url(#paint5_linear_0_1)"/>
<path d="M419.831 170.25V170.953C419.831 171.92 419.705 172.787 419.453 173.555C419.201 174.322 418.841 174.976 418.372 175.515C417.909 176.054 417.353 176.467 416.702 176.754C416.052 177.035 415.331 177.176 414.54 177.176C413.755 177.176 413.037 177.035 412.387 176.754C411.743 176.467 411.183 176.054 410.708 175.515C410.234 174.976 409.865 174.322 409.601 173.555C409.343 172.787 409.214 171.92 409.214 170.953V170.25C409.214 169.283 409.343 168.419 409.601 167.657C409.859 166.89 410.222 166.236 410.691 165.697C411.165 165.152 411.725 164.739 412.369 164.458C413.02 164.171 413.738 164.027 414.523 164.027C415.314 164.027 416.034 164.171 416.685 164.458C417.335 164.739 417.895 165.152 418.364 165.697C418.832 166.236 419.193 166.89 419.445 167.657C419.702 168.419 419.831 169.283 419.831 170.25ZM417.625 170.953V170.232C417.625 169.518 417.555 168.888 417.414 168.343C417.28 167.792 417.077 167.332 416.808 166.963C416.544 166.588 416.219 166.307 415.832 166.119C415.446 165.926 415.009 165.829 414.523 165.829C414.036 165.829 413.603 165.926 413.222 166.119C412.841 166.307 412.516 166.588 412.246 166.963C411.983 167.332 411.781 167.792 411.64 168.343C411.499 168.888 411.429 169.518 411.429 170.232V170.953C411.429 171.668 411.499 172.301 411.64 172.852C411.781 173.402 411.986 173.868 412.255 174.249C412.531 174.624 412.859 174.908 413.24 175.102C413.62 175.289 414.054 175.383 414.54 175.383C415.033 175.383 415.469 175.289 415.85 175.102C416.231 174.908 416.553 174.624 416.817 174.249C417.08 173.868 417.28 173.402 417.414 172.852C417.555 172.301 417.625 171.668 417.625 170.953ZM426.828 174.759V167.49H428.955V177H426.951L426.828 174.759ZM427.127 172.781L427.839 172.764C427.839 173.402 427.769 173.991 427.628 174.53C427.487 175.063 427.271 175.529 426.978 175.928C426.685 176.32 426.31 176.628 425.853 176.851C425.396 177.067 424.848 177.176 424.209 177.176C423.746 177.176 423.321 177.108 422.935 176.974C422.548 176.839 422.214 176.631 421.933 176.35C421.657 176.068 421.443 175.702 421.291 175.251C421.139 174.8 421.063 174.261 421.063 173.634V167.49H423.181V173.651C423.181 173.997 423.222 174.287 423.304 174.521C423.386 174.75 423.497 174.935 423.638 175.075C423.778 175.216 423.942 175.315 424.13 175.374C424.317 175.433 424.517 175.462 424.728 175.462C425.331 175.462 425.806 175.345 426.151 175.11C426.503 174.87 426.752 174.548 426.898 174.144C427.051 173.739 427.127 173.285 427.127 172.781ZM434.765 167.49V169.037H429.404V167.49H434.765ZM430.951 165.161H433.069V174.372C433.069 174.665 433.11 174.891 433.192 175.049C433.28 175.201 433.4 175.304 433.552 175.356C433.705 175.409 433.884 175.436 434.089 175.436C434.235 175.436 434.376 175.427 434.511 175.409C434.645 175.392 434.754 175.374 434.836 175.356L434.844 176.974C434.669 177.026 434.464 177.073 434.229 177.114C434.001 177.155 433.737 177.176 433.438 177.176C432.952 177.176 432.521 177.091 432.146 176.921C431.771 176.745 431.478 176.461 431.267 176.068C431.056 175.676 430.951 175.154 430.951 174.504V165.161ZM439.565 175.488C439.911 175.488 440.221 175.421 440.497 175.286C440.778 175.146 441.003 174.952 441.173 174.706C441.349 174.46 441.446 174.176 441.463 173.854H443.458C443.447 174.469 443.265 175.028 442.914 175.532C442.562 176.036 442.096 176.438 441.516 176.736C440.936 177.029 440.294 177.176 439.591 177.176C438.865 177.176 438.232 177.053 437.693 176.807C437.154 176.555 436.706 176.209 436.348 175.77C435.991 175.33 435.721 174.823 435.54 174.249C435.364 173.675 435.276 173.06 435.276 172.403V172.096C435.276 171.439 435.364 170.824 435.54 170.25C435.721 169.67 435.991 169.16 436.348 168.721C436.706 168.281 437.154 167.938 437.693 167.692C438.232 167.44 438.862 167.314 439.583 167.314C440.344 167.314 441.012 167.467 441.586 167.771C442.161 168.07 442.612 168.489 442.94 169.028C443.274 169.562 443.447 170.183 443.458 170.892H441.463C441.446 170.54 441.358 170.224 441.2 169.942C441.047 169.655 440.831 169.427 440.549 169.257C440.274 169.087 439.943 169.002 439.556 169.002C439.128 169.002 438.774 169.09 438.493 169.266C438.211 169.436 437.992 169.67 437.833 169.969C437.675 170.262 437.561 170.593 437.491 170.962C437.426 171.325 437.394 171.703 437.394 172.096V172.403C437.394 172.796 437.426 173.177 437.491 173.546C437.555 173.915 437.666 174.246 437.825 174.539C437.989 174.826 438.211 175.058 438.493 175.233C438.774 175.403 439.131 175.488 439.565 175.488ZM443.96 172.351V172.148C443.96 171.463 444.06 170.827 444.259 170.241C444.458 169.649 444.745 169.137 445.12 168.703C445.501 168.264 445.964 167.924 446.509 167.684C447.06 167.438 447.681 167.314 448.372 167.314C449.07 167.314 449.691 167.438 450.236 167.684C450.786 167.924 451.252 168.264 451.633 168.703C452.014 169.137 452.304 169.649 452.503 170.241C452.702 170.827 452.802 171.463 452.802 172.148V172.351C452.802 173.036 452.702 173.672 452.503 174.258C452.304 174.844 452.014 175.356 451.633 175.796C451.252 176.229 450.789 176.569 450.244 176.815C449.699 177.056 449.081 177.176 448.39 177.176C447.693 177.176 447.069 177.056 446.518 176.815C445.973 176.569 445.51 176.229 445.129 175.796C444.748 175.356 444.458 174.844 444.259 174.258C444.06 173.672 443.96 173.036 443.96 172.351ZM446.078 172.148V172.351C446.078 172.778 446.122 173.183 446.21 173.563C446.298 173.944 446.436 174.278 446.623 174.565C446.811 174.853 447.051 175.078 447.344 175.242C447.637 175.406 447.986 175.488 448.39 175.488C448.782 175.488 449.122 175.406 449.409 175.242C449.702 175.078 449.943 174.853 450.13 174.565C450.318 174.278 450.455 173.944 450.543 173.563C450.637 173.183 450.684 172.778 450.684 172.351V172.148C450.684 171.727 450.637 171.328 450.543 170.953C450.455 170.572 450.315 170.235 450.121 169.942C449.934 169.649 449.694 169.421 449.401 169.257C449.113 169.087 448.771 169.002 448.372 169.002C447.974 169.002 447.628 169.087 447.335 169.257C447.048 169.421 446.811 169.649 446.623 169.942C446.436 170.235 446.298 170.572 446.21 170.953C446.122 171.328 446.078 171.727 446.078 172.148ZM455.976 169.424V177H453.857V167.49H455.852L455.976 169.424ZM455.633 171.894L454.912 171.885C454.912 171.229 454.994 170.622 455.158 170.065C455.322 169.509 455.562 169.025 455.879 168.615C456.195 168.199 456.588 167.88 457.057 167.657C457.531 167.429 458.079 167.314 458.7 167.314C459.134 167.314 459.529 167.379 459.887 167.508C460.25 167.631 460.563 167.827 460.827 168.097C461.097 168.366 461.302 168.712 461.442 169.134C461.589 169.556 461.662 170.065 461.662 170.663V177H459.544V170.848C459.544 170.385 459.474 170.021 459.333 169.758C459.198 169.494 459.002 169.307 458.744 169.195C458.492 169.078 458.19 169.02 457.839 169.02C457.44 169.02 457.101 169.096 456.819 169.248C456.544 169.4 456.318 169.608 456.143 169.872C455.967 170.136 455.838 170.44 455.756 170.786C455.674 171.132 455.633 171.501 455.633 171.894ZM461.53 171.331L460.537 171.551C460.537 170.977 460.616 170.435 460.774 169.925C460.938 169.409 461.176 168.958 461.486 168.571C461.803 168.179 462.192 167.871 462.655 167.648C463.118 167.426 463.648 167.314 464.246 167.314C464.732 167.314 465.166 167.382 465.547 167.517C465.934 167.646 466.262 167.851 466.531 168.132C466.801 168.413 467.006 168.779 467.146 169.23C467.287 169.676 467.357 170.215 467.357 170.848V177H465.23V170.839C465.23 170.358 465.16 169.986 465.019 169.723C464.885 169.459 464.691 169.277 464.439 169.178C464.187 169.072 463.886 169.02 463.534 169.02C463.206 169.02 462.916 169.081 462.664 169.204C462.418 169.321 462.21 169.488 462.04 169.705C461.87 169.916 461.741 170.159 461.653 170.435C461.571 170.71 461.53 171.009 461.53 171.331ZM473.009 177.176C472.306 177.176 471.671 177.062 471.102 176.833C470.54 176.599 470.059 176.273 469.661 175.857C469.268 175.441 468.966 174.952 468.756 174.39C468.545 173.827 468.439 173.221 468.439 172.57V172.219C468.439 171.475 468.548 170.801 468.764 170.197C468.981 169.594 469.283 169.078 469.67 168.65C470.056 168.217 470.513 167.886 471.041 167.657C471.568 167.429 472.139 167.314 472.755 167.314C473.434 167.314 474.029 167.429 474.539 167.657C475.048 167.886 475.47 168.208 475.804 168.624C476.144 169.034 476.396 169.523 476.56 170.092C476.73 170.66 476.815 171.287 476.815 171.973V172.878H469.467V171.357H474.723V171.19C474.712 170.81 474.635 170.452 474.495 170.118C474.36 169.784 474.152 169.515 473.871 169.31C473.589 169.104 473.214 169.002 472.746 169.002C472.394 169.002 472.081 169.078 471.805 169.23C471.536 169.377 471.31 169.591 471.129 169.872C470.947 170.153 470.806 170.493 470.707 170.892C470.613 171.284 470.566 171.727 470.566 172.219V172.57C470.566 172.986 470.622 173.373 470.733 173.73C470.85 174.082 471.02 174.39 471.243 174.653C471.465 174.917 471.735 175.125 472.051 175.277C472.368 175.424 472.728 175.497 473.132 175.497C473.642 175.497 474.096 175.395 474.495 175.189C474.893 174.984 475.239 174.694 475.532 174.319L476.648 175.4C476.443 175.699 476.176 175.986 475.848 176.262C475.52 176.531 475.119 176.751 474.644 176.921C474.175 177.091 473.631 177.176 473.009 177.176ZM488.453 173.704C488.453 173.44 488.412 173.206 488.33 173.001C488.254 172.796 488.116 172.608 487.917 172.438C487.718 172.269 487.437 172.104 487.073 171.946C486.716 171.782 486.259 171.615 485.702 171.445C485.093 171.258 484.53 171.05 484.015 170.821C483.505 170.587 483.06 170.317 482.679 170.013C482.298 169.702 482.002 169.348 481.791 168.949C481.58 168.545 481.475 168.079 481.475 167.552C481.475 167.03 481.583 166.556 481.8 166.128C482.023 165.7 482.336 165.331 482.74 165.021C483.15 164.704 483.634 164.461 484.191 164.291C484.747 164.115 485.362 164.027 486.036 164.027C486.985 164.027 487.803 164.203 488.488 164.555C489.18 164.906 489.71 165.378 490.079 165.97C490.454 166.562 490.642 167.215 490.642 167.93H488.453C488.453 167.508 488.362 167.136 488.181 166.813C488.005 166.485 487.735 166.228 487.372 166.04C487.015 165.853 486.561 165.759 486.01 165.759C485.488 165.759 485.055 165.838 484.709 165.996C484.363 166.154 484.106 166.368 483.936 166.638C483.766 166.907 483.681 167.212 483.681 167.552C483.681 167.792 483.736 168.012 483.848 168.211C483.959 168.404 484.129 168.586 484.357 168.756C484.586 168.92 484.873 169.075 485.219 169.222C485.565 169.368 485.972 169.509 486.441 169.644C487.149 169.854 487.768 170.089 488.295 170.347C488.822 170.599 489.262 170.886 489.613 171.208C489.965 171.53 490.229 171.896 490.404 172.307C490.58 172.711 490.668 173.171 490.668 173.687C490.668 174.226 490.56 174.712 490.343 175.146C490.126 175.573 489.816 175.939 489.411 176.244C489.013 176.543 488.532 176.774 487.97 176.938C487.413 177.097 486.792 177.176 486.107 177.176C485.491 177.176 484.885 177.094 484.287 176.93C483.695 176.766 483.156 176.517 482.67 176.183C482.184 175.843 481.797 175.421 481.51 174.917C481.223 174.407 481.079 173.812 481.079 173.133H483.285C483.285 173.549 483.356 173.903 483.496 174.196C483.643 174.489 483.845 174.729 484.103 174.917C484.36 175.099 484.659 175.233 484.999 175.321C485.345 175.409 485.714 175.453 486.107 175.453C486.622 175.453 487.053 175.38 487.399 175.233C487.75 175.087 488.014 174.882 488.19 174.618C488.365 174.354 488.453 174.05 488.453 173.704ZM496.048 167.49V169.037H490.686V167.49H496.048ZM492.233 165.161H494.351V174.372C494.351 174.665 494.392 174.891 494.474 175.049C494.562 175.201 494.682 175.304 494.835 175.356C494.987 175.409 495.166 175.436 495.371 175.436C495.517 175.436 495.658 175.427 495.793 175.409C495.928 175.392 496.036 175.374 496.118 175.356L496.127 176.974C495.951 177.026 495.746 177.073 495.512 177.114C495.283 177.155 495.019 177.176 494.721 177.176C494.234 177.176 493.804 177.091 493.429 176.921C493.054 176.745 492.761 176.461 492.55 176.068C492.339 175.676 492.233 175.154 492.233 174.504V165.161ZM502.324 175.093V170.558C502.324 170.218 502.262 169.925 502.139 169.679C502.016 169.433 501.829 169.242 501.577 169.107C501.331 168.973 501.02 168.905 500.645 168.905C500.299 168.905 500.001 168.964 499.749 169.081C499.497 169.198 499.3 169.356 499.16 169.556C499.019 169.755 498.949 169.98 498.949 170.232H496.839C496.839 169.857 496.93 169.494 497.112 169.143C497.293 168.791 497.557 168.478 497.903 168.202C498.249 167.927 498.662 167.71 499.142 167.552C499.623 167.394 500.162 167.314 500.759 167.314C501.474 167.314 502.107 167.435 502.658 167.675C503.214 167.915 503.651 168.278 503.967 168.765C504.29 169.245 504.451 169.849 504.451 170.575V174.803C504.451 175.236 504.48 175.626 504.539 175.972C504.603 176.312 504.694 176.607 504.811 176.859V177H502.64C502.541 176.771 502.461 176.481 502.403 176.13C502.35 175.772 502.324 175.427 502.324 175.093ZM502.631 171.217L502.649 172.526H501.128C500.736 172.526 500.39 172.564 500.091 172.641C499.793 172.711 499.543 172.816 499.344 172.957C499.145 173.098 498.996 173.268 498.896 173.467C498.796 173.666 498.747 173.892 498.747 174.144C498.747 174.396 498.805 174.627 498.922 174.838C499.04 175.043 499.209 175.204 499.432 175.321C499.661 175.438 499.936 175.497 500.258 175.497C500.692 175.497 501.07 175.409 501.392 175.233C501.72 175.052 501.978 174.832 502.166 174.574C502.353 174.311 502.453 174.062 502.464 173.827L503.15 174.768C503.08 175.008 502.959 175.266 502.79 175.541C502.62 175.816 502.397 176.08 502.122 176.332C501.852 176.578 501.527 176.78 501.146 176.938C500.771 177.097 500.337 177.176 499.845 177.176C499.224 177.176 498.67 177.053 498.184 176.807C497.698 176.555 497.317 176.218 497.042 175.796C496.766 175.368 496.628 174.885 496.628 174.346C496.628 173.842 496.722 173.396 496.91 173.01C497.103 172.617 497.384 172.289 497.753 172.025C498.128 171.762 498.585 171.562 499.125 171.428C499.664 171.287 500.279 171.217 500.97 171.217H502.631ZM510.305 167.49V169.037H504.944V167.49H510.305ZM506.49 165.161H508.609V174.372C508.609 174.665 508.65 174.891 508.732 175.049C508.82 175.201 508.94 175.304 509.092 175.356C509.244 175.409 509.423 175.436 509.628 175.436C509.775 175.436 509.915 175.427 510.05 175.409C510.185 175.392 510.293 175.374 510.375 175.356L510.384 176.974C510.208 177.026 510.003 177.073 509.769 177.114C509.54 177.155 509.277 177.176 508.978 177.176C508.491 177.176 508.061 177.091 507.686 176.921C507.311 176.745 507.018 176.461 506.807 176.068C506.596 175.676 506.49 175.154 506.49 174.504V165.161ZM516.555 174.425C516.555 174.214 516.502 174.023 516.396 173.854C516.291 173.678 516.089 173.52 515.79 173.379C515.497 173.238 515.063 173.109 514.489 172.992C513.985 172.881 513.522 172.749 513.101 172.597C512.685 172.438 512.327 172.248 512.028 172.025C511.729 171.803 511.498 171.539 511.334 171.234C511.17 170.93 511.088 170.578 511.088 170.18C511.088 169.793 511.173 169.427 511.343 169.081C511.513 168.735 511.756 168.431 512.072 168.167C512.389 167.903 512.772 167.695 513.224 167.543C513.681 167.391 514.19 167.314 514.753 167.314C515.55 167.314 516.232 167.449 516.801 167.719C517.375 167.982 517.814 168.343 518.119 168.8C518.424 169.251 518.576 169.761 518.576 170.329H516.458C516.458 170.077 516.394 169.843 516.265 169.626C516.142 169.403 515.954 169.225 515.702 169.09C515.45 168.949 515.134 168.879 514.753 168.879C514.39 168.879 514.088 168.938 513.848 169.055C513.613 169.166 513.437 169.312 513.32 169.494C513.209 169.676 513.153 169.875 513.153 170.092C513.153 170.25 513.183 170.394 513.241 170.522C513.306 170.646 513.411 170.76 513.558 170.865C513.704 170.965 513.903 171.059 514.155 171.146C514.413 171.234 514.735 171.319 515.122 171.401C515.849 171.554 516.473 171.75 516.994 171.99C517.521 172.225 517.926 172.529 518.207 172.904C518.488 173.273 518.629 173.742 518.629 174.311C518.629 174.732 518.538 175.119 518.356 175.471C518.181 175.816 517.923 176.118 517.583 176.376C517.243 176.628 516.836 176.824 516.361 176.965C515.893 177.105 515.365 177.176 514.779 177.176C513.918 177.176 513.188 177.023 512.591 176.719C511.993 176.408 511.539 176.013 511.228 175.532C510.924 175.046 510.771 174.542 510.771 174.021H512.819C512.843 174.413 512.951 174.727 513.144 174.961C513.344 175.189 513.59 175.356 513.883 175.462C514.182 175.562 514.489 175.611 514.806 175.611C515.186 175.611 515.506 175.562 515.764 175.462C516.021 175.356 516.218 175.216 516.353 175.04C516.487 174.858 516.555 174.653 516.555 174.425Z" fill="#422191"/>
<path d="M416.653 207.312V209H410.935V207.312H416.653ZM411.583 197.625V209H409.435V197.625H411.583ZM421.951 207.203V203.305C421.951 203.018 421.901 202.771 421.803 202.562C421.704 202.354 421.553 202.193 421.349 202.078C421.146 201.964 420.888 201.906 420.576 201.906C420.3 201.906 420.058 201.953 419.849 202.047C419.646 202.141 419.49 202.273 419.381 202.445C419.271 202.612 419.217 202.805 419.217 203.023H417.146C417.146 202.674 417.23 202.344 417.396 202.031C417.563 201.714 417.8 201.432 418.107 201.188C418.42 200.938 418.792 200.742 419.224 200.602C419.662 200.461 420.151 200.391 420.693 200.391C421.334 200.391 421.904 200.5 422.404 200.719C422.909 200.932 423.305 201.255 423.592 201.688C423.883 202.12 424.029 202.664 424.029 203.32V207.008C424.029 207.43 424.055 207.792 424.107 208.094C424.164 208.391 424.248 208.648 424.357 208.867V209H422.256C422.157 208.786 422.081 208.516 422.029 208.188C421.977 207.854 421.951 207.526 421.951 207.203ZM422.24 203.852L422.256 205.078H420.951C420.628 205.078 420.344 205.112 420.099 205.18C419.855 205.242 419.654 205.336 419.498 205.461C419.342 205.581 419.224 205.727 419.146 205.898C419.068 206.065 419.029 206.255 419.029 206.469C419.029 206.677 419.076 206.865 419.17 207.031C419.269 207.198 419.409 207.331 419.592 207.43C419.779 207.523 419.998 207.57 420.248 207.57C420.612 207.57 420.93 207.497 421.201 207.352C421.472 207.201 421.683 207.018 421.834 206.805C421.985 206.591 422.066 206.388 422.076 206.195L422.67 207.086C422.597 207.299 422.487 207.526 422.342 207.766C422.196 208.005 422.008 208.229 421.779 208.438C421.55 208.646 421.274 208.818 420.951 208.953C420.628 209.089 420.253 209.156 419.826 209.156C419.279 209.156 418.789 209.047 418.357 208.828C417.925 208.609 417.584 208.31 417.334 207.93C417.084 207.549 416.959 207.117 416.959 206.633C416.959 206.185 417.042 205.789 417.209 205.445C417.375 205.102 417.623 204.812 417.951 204.578C418.279 204.339 418.685 204.159 419.17 204.039C419.659 203.914 420.219 203.852 420.849 203.852H422.24ZM429.897 206.688C429.897 206.51 429.85 206.352 429.756 206.211C429.663 206.07 429.485 205.943 429.225 205.828C428.97 205.708 428.595 205.596 428.1 205.492C427.663 205.398 427.259 205.281 426.889 205.141C426.519 205 426.202 204.831 425.936 204.633C425.67 204.43 425.462 204.193 425.311 203.922C425.165 203.646 425.092 203.328 425.092 202.969C425.092 202.62 425.168 202.292 425.319 201.984C425.47 201.672 425.689 201.398 425.975 201.164C426.261 200.924 426.61 200.737 427.022 200.602C427.433 200.461 427.897 200.391 428.413 200.391C429.131 200.391 429.748 200.508 430.264 200.742C430.785 200.977 431.183 201.299 431.459 201.711C431.735 202.117 431.873 202.576 431.873 203.086H429.811C429.811 202.862 429.759 202.659 429.655 202.477C429.556 202.294 429.402 202.148 429.194 202.039C428.985 201.924 428.722 201.867 428.405 201.867C428.118 201.867 427.876 201.914 427.678 202.008C427.485 202.102 427.34 202.224 427.241 202.375C427.142 202.526 427.092 202.693 427.092 202.875C427.092 203.01 427.118 203.133 427.17 203.242C427.228 203.346 427.319 203.443 427.444 203.531C427.569 203.62 427.738 203.701 427.952 203.773C428.17 203.846 428.439 203.917 428.756 203.984C429.386 204.109 429.936 204.276 430.405 204.484C430.879 204.688 431.248 204.958 431.514 205.297C431.78 205.635 431.913 206.068 431.913 206.594C431.913 206.969 431.832 207.312 431.67 207.625C431.509 207.932 431.274 208.201 430.967 208.43C430.66 208.659 430.293 208.839 429.866 208.969C429.439 209.094 428.957 209.156 428.42 209.156C427.644 209.156 426.988 209.018 426.452 208.742C425.915 208.461 425.509 208.107 425.233 207.68C424.957 207.247 424.819 206.799 424.819 206.336H426.795C426.811 206.664 426.899 206.927 427.061 207.125C427.222 207.323 427.426 207.466 427.67 207.555C427.92 207.638 428.183 207.68 428.459 207.68C428.772 207.68 429.035 207.638 429.248 207.555C429.462 207.466 429.623 207.349 429.733 207.203C429.842 207.052 429.897 206.88 429.897 206.688ZM436.843 200.547V202.031H431.999V200.547H436.843ZM433.296 198.469H435.366V206.562C435.366 206.812 435.4 207.005 435.468 207.141C435.536 207.276 435.637 207.367 435.773 207.414C435.908 207.461 436.069 207.484 436.257 207.484C436.392 207.484 436.517 207.477 436.632 207.461C436.746 207.445 436.843 207.43 436.921 207.414L436.929 208.961C436.757 209.018 436.562 209.065 436.343 209.102C436.129 209.138 435.887 209.156 435.616 209.156C435.153 209.156 434.746 209.078 434.398 208.922C434.049 208.76 433.778 208.503 433.585 208.148C433.392 207.789 433.296 207.315 433.296 206.727V198.469ZM442.977 202.281V209H440.914V200.547H442.86L442.977 202.281ZM442.672 204.469H442.039C442.039 203.88 442.11 203.339 442.25 202.844C442.396 202.349 442.61 201.919 442.891 201.555C443.172 201.185 443.519 200.898 443.93 200.695C444.347 200.492 444.828 200.391 445.375 200.391C445.756 200.391 446.104 200.448 446.422 200.562C446.74 200.672 447.013 200.846 447.243 201.086C447.477 201.32 447.657 201.628 447.782 202.008C447.907 202.383 447.969 202.833 447.969 203.359V209H445.907V203.57C445.907 203.174 445.849 202.865 445.735 202.641C445.625 202.417 445.466 202.26 445.258 202.172C445.05 202.078 444.8 202.031 444.508 202.031C444.185 202.031 443.907 202.096 443.672 202.227C443.443 202.352 443.253 202.526 443.102 202.75C442.956 202.974 442.847 203.232 442.774 203.523C442.706 203.815 442.672 204.13 442.672 204.469ZM447.813 204.086L446.961 204.242C446.966 203.711 447.039 203.214 447.18 202.75C447.321 202.281 447.526 201.872 447.797 201.523C448.073 201.169 448.414 200.893 448.821 200.695C449.232 200.492 449.706 200.391 450.243 200.391C450.659 200.391 451.034 200.451 451.368 200.57C451.706 200.685 451.995 200.87 452.235 201.125C452.474 201.375 452.657 201.701 452.782 202.102C452.912 202.503 452.977 202.992 452.977 203.57V209H450.899V203.562C450.899 203.151 450.841 202.836 450.727 202.617C450.618 202.398 450.459 202.247 450.25 202.164C450.042 202.076 449.797 202.031 449.516 202.031C449.229 202.031 448.979 202.086 448.766 202.195C448.558 202.299 448.381 202.445 448.235 202.633C448.094 202.82 447.987 203.039 447.914 203.289C447.847 203.534 447.813 203.799 447.813 204.086ZM453.821 204.859V204.695C453.821 204.076 453.91 203.505 454.087 202.984C454.264 202.458 454.522 202.003 454.86 201.617C455.199 201.232 455.613 200.932 456.103 200.719C456.592 200.5 457.149 200.391 457.774 200.391C458.41 200.391 458.972 200.5 459.462 200.719C459.957 200.932 460.373 201.232 460.712 201.617C461.05 202.003 461.308 202.458 461.485 202.984C461.662 203.505 461.751 204.076 461.751 204.695V204.859C461.751 205.474 461.662 206.044 461.485 206.57C461.308 207.091 461.05 207.547 460.712 207.938C460.373 208.323 459.959 208.622 459.47 208.836C458.98 209.049 458.42 209.156 457.79 209.156C457.165 209.156 456.605 209.049 456.11 208.836C455.616 208.622 455.199 208.323 454.86 207.938C454.522 207.547 454.264 207.091 454.087 206.57C453.91 206.044 453.821 205.474 453.821 204.859ZM455.884 204.695V204.859C455.884 205.229 455.92 205.576 455.993 205.898C456.066 206.221 456.178 206.505 456.329 206.75C456.48 206.995 456.675 207.188 456.915 207.328C457.16 207.464 457.451 207.531 457.79 207.531C458.123 207.531 458.41 207.464 458.649 207.328C458.889 207.188 459.084 206.995 459.235 206.75C459.392 206.505 459.506 206.221 459.579 205.898C459.652 205.576 459.688 205.229 459.688 204.859V204.695C459.688 204.331 459.652 203.99 459.579 203.672C459.506 203.349 459.392 203.065 459.235 202.82C459.084 202.57 458.886 202.375 458.642 202.234C458.402 202.089 458.113 202.016 457.774 202.016C457.441 202.016 457.155 202.089 456.915 202.234C456.675 202.375 456.48 202.57 456.329 202.82C456.178 203.065 456.066 203.349 455.993 203.672C455.92 203.99 455.884 204.331 455.884 204.695ZM464.634 202.352V209H462.572V200.547H464.509L464.634 202.352ZM464.306 204.469H463.697C463.702 203.854 463.785 203.297 463.947 202.797C464.108 202.297 464.335 201.867 464.627 201.508C464.923 201.148 465.275 200.872 465.681 200.68C466.088 200.487 466.541 200.391 467.041 200.391C467.447 200.391 467.814 200.448 468.142 200.562C468.47 200.677 468.752 200.859 468.986 201.109C469.226 201.359 469.408 201.688 469.533 202.094C469.663 202.495 469.728 202.99 469.728 203.578V209H467.65V203.562C467.65 203.177 467.593 202.872 467.478 202.648C467.369 202.424 467.207 202.266 466.994 202.172C466.785 202.078 466.528 202.031 466.22 202.031C465.903 202.031 465.624 202.096 465.384 202.227C465.15 202.352 464.952 202.526 464.791 202.75C464.634 202.974 464.515 203.232 464.431 203.523C464.348 203.815 464.306 204.13 464.306 204.469ZM474.908 200.547V202.031H470.065V200.547H474.908ZM471.362 198.469H473.432V206.562C473.432 206.812 473.466 207.005 473.533 207.141C473.601 207.276 473.703 207.367 473.838 207.414C473.974 207.461 474.135 207.484 474.323 207.484C474.458 207.484 474.583 207.477 474.698 207.461C474.812 207.445 474.908 207.43 474.987 207.414L474.994 208.961C474.823 209.018 474.627 209.065 474.408 209.102C474.195 209.138 473.953 209.156 473.682 209.156C473.218 209.156 472.812 209.078 472.463 208.922C472.114 208.76 471.843 208.503 471.651 208.148C471.458 207.789 471.362 207.315 471.362 206.727V198.469ZM477.667 197V209H475.597V197H477.667ZM477.339 204.469H476.729C476.729 203.88 476.807 203.339 476.964 202.844C477.12 202.349 477.341 201.919 477.628 201.555C477.914 201.185 478.255 200.898 478.651 200.695C479.052 200.492 479.495 200.391 479.979 200.391C480.396 200.391 480.774 200.451 481.112 200.57C481.456 200.685 481.75 200.87 481.995 201.125C482.24 201.38 482.427 201.714 482.557 202.125C482.693 202.531 482.761 203.026 482.761 203.609V209H480.682V203.594C480.682 203.203 480.625 202.896 480.511 202.672C480.396 202.443 480.232 202.279 480.018 202.18C479.81 202.081 479.552 202.031 479.245 202.031C478.912 202.031 478.625 202.096 478.386 202.227C478.146 202.352 477.948 202.526 477.792 202.75C477.641 202.974 477.526 203.232 477.448 203.523C477.375 203.815 477.339 204.13 477.339 204.469Z" fill="#C7C7C7"/>
<g filter="url(#filter2_f_0_1)">
<path d="M385 295.119C385 295.119 397.752 287.474 406.871 286.62C415.99 285.765 420.578 297.243 432.571 295.119C446.742 292.608 459.754 278.829 471.748 278.829C483.742 278.829 508.012 287.046 517.221 278.829C523.57 273.163 529.63 238 541.006 238C549.472 238 561.176 271.038 575.286 278.829C580.849 281.901 605.433 265.229 621.345 271.038C629.106 273.871 635.349 289.453 647.342 295.119C658.195 300.245 679.759 281.096 693.515 286.62C704.097 290.869 718 295.119 718 295.119" stroke="#D2D2D7" stroke-width="4"/>
</g>
<ellipse cx="546.5" cy="228" rx="6.5" ry="5" fill="#8C43D4"/>
<path d="M552.5 228C552.5 229.193 551.872 230.308 550.791 231.139C549.71 231.971 548.194 232.5 546.5 232.5C544.806 232.5 543.29 231.971 542.209 231.139C541.128 230.308 540.5 229.193 540.5 228C540.5 226.807 541.128 225.692 542.209 224.861C543.29 224.029 544.806 223.5 546.5 223.5C548.194 223.5 549.71 224.029 550.791 224.861C551.872 225.692 552.5 226.807 552.5 228Z" stroke="#4D00A3" stroke-opacity="0.5"/>
<path d="M385 282.253C385 282.253 397.752 275.49 406.871 274.735C415.99 273.979 427.331 286.012 439.324 284.132C453.495 281.912 461.9 267.843 473.894 267.843C485.888 267.843 506.31 283.883 515.519 276.614C521.869 271.602 537.302 229 548.678 229C557.144 229 565.61 260.952 579.72 267.843C585.284 270.56 605.433 255.813 621.345 260.952C629.106 263.458 638.983 282.253 650.977 287.265C662.97 292.277 679.551 269.848 693.307 274.735C703.89 278.494 718 282.253 718 282.253" stroke="url(#paint6_linear_0_1)" stroke-width="2"/>
<path d="M448.731 334.454V336.498H447.679V334.454H448.731ZM448.602 345.617V347.449H447.556V345.617H448.602ZM449.634 343.409C449.634 343.145 449.579 342.915 449.47 342.719C449.365 342.518 449.192 342.338 448.95 342.179C448.709 342.015 448.385 341.862 447.979 341.721C447.396 341.516 446.886 341.285 446.448 341.03C446.015 340.771 445.678 340.451 445.437 340.073C445.2 339.69 445.081 339.214 445.081 338.645C445.081 338.084 445.209 337.599 445.464 337.188C445.724 336.778 446.084 336.462 446.544 336.238C447.004 336.015 447.542 335.903 448.157 335.903C448.631 335.903 449.057 335.974 449.436 336.115C449.818 336.257 450.144 336.464 450.413 336.737C450.682 337.011 450.887 337.348 451.028 337.749C451.174 338.146 451.247 338.601 451.247 339.116H449.606C449.606 338.825 449.572 338.565 449.504 338.337C449.44 338.104 449.344 337.909 449.217 337.749C449.089 337.585 448.934 337.46 448.752 337.373C448.574 337.286 448.371 337.243 448.144 337.243C447.82 337.243 447.553 337.305 447.344 337.428C447.134 337.546 446.979 337.71 446.879 337.92C446.783 338.13 446.735 338.369 446.735 338.638C446.735 338.897 446.785 339.125 446.886 339.321C446.986 339.517 447.157 339.695 447.398 339.854C447.645 340.009 447.982 340.167 448.41 340.326C448.998 340.536 449.506 340.771 449.935 341.03C450.368 341.285 450.7 341.602 450.933 341.98C451.17 342.354 451.288 342.826 451.288 343.396C451.288 343.983 451.151 344.482 450.878 344.893C450.609 345.303 450.231 345.615 449.743 345.829C449.26 346.039 448.697 346.144 448.055 346.144C447.649 346.144 447.246 346.091 446.845 345.986C446.448 345.877 446.088 345.699 445.765 345.453C445.441 345.207 445.184 344.881 444.992 344.476C444.801 344.065 444.705 343.564 444.705 342.972H446.359C446.359 343.327 446.407 343.623 446.503 343.86C446.599 344.097 446.729 344.284 446.893 344.421C447.057 344.558 447.239 344.656 447.439 344.715C447.645 344.774 447.85 344.804 448.055 344.804C448.396 344.804 448.684 344.747 448.916 344.633C449.153 344.514 449.331 344.35 449.449 344.141C449.572 343.926 449.634 343.683 449.634 343.409Z" fill="#6D22BB"/>
<circle cx="428" cy="351" r="5" fill="#7026B4"/>
<defs>
<filter id="filter0_d_0_1" x="0.6" y="159.6" width="80.8" height="202.8" filterUnits="userSpaceOnUse" color-interpolation-filters="sRGB">
<feFlood flood-opacity="0" result="BackgroundImageFix"/>
<feColorMatrix in="SourceAlpha" type="matrix" values="0 0 0 0 0 0 0 0 0 0 0 0 0 0 0 0 0 0 127 0" result="hardAlpha"/>
<feOffset dx="4" dy="3"/>
<feGaussianBlur stdDeviation="5.2"/>
<feComposite in2="hardAlpha" operator="out"/>
<feColorMatrix type="matrix" values="0 0 0 0 0 0 0 0 0 0 0 0 0 0 0 0 0 0 0.14 0"/>
<feBlend mode="normal" in2="BackgroundImageFix" result="effect1_dropShadow_0_1"/>
<feBlend mode="normal" in="SourceGraphic" in2="effect1_dropShadow_0_1" result="shape"/>
</filter>
<filter id="filter1_d_0_1" x="23.1" y="136.1" width="56.8" height="243.8" filterUnits="userSpaceOnUse" color-interpolation-filters="sRGB">
<feFlood flood-opacity="0" result="BackgroundImageFix"/>
<feColorMatrix in="SourceAlpha" type="matrix" values="0 0 0 0 0 0 0 0 0 0 0 0 0 0 0 0 0 0 127 0" result="hardAlpha"/>
<feOffset dy="4"/>
<feGaussianBlur stdDeviation="6.45"/>
<feComposite in2="hardAlpha" operator="out"/>
<feColorMatrix type="matrix" values="0 0 0 0 0 0 0 0 0 0 0 0 0 0 0 0 0 0 0.12 0"/>
<feBlend mode="normal" in2="BackgroundImageFix" result="effect1_dropShadow_0_1"/>
<feBlend mode="normal" in="SourceGraphic" in2="effect1_dropShadow_0_1" result="shape"/>
</filter>
<filter id="filter2_f_0_1" x="381.772" y="233.8" width="339.012" height="66.4" filterUnits="userSpaceOnUse" color-interpolation-filters="sRGB">
<feFlood flood-opacity="0" result="BackgroundImageFix"/>
<feBlend mode="normal" in="SourceGraphic" in2="BackgroundImageFix" result="shape"/>
<feGaussianBlur stdDeviation="1.1" result="effect1_foregroundBlur_0_1"/>
</filter>
<linearGradient id="paint0_linear_0_1" x1="420.75" y1="0" x2="420.75" y2="535" gradientUnits="userSpaceOnUse">
<stop stop-color="#402E8A"/>
<stop offset="1" stop-color="#842DD6"/>
</linearGradient>
<linearGradient id="paint1_linear_0_1" x1="418" y1="202.5" x2="683.5" y2="406" gradientUnits="userSpaceOnUse">
<stop stop-color="#F9F8FA"/>
<stop offset="1" stop-color="#DCC7F1"/>
</linearGradient>
<linearGradient id="paint2_linear_0_1" x1="7" y1="247" x2="53.2316" y2="250.728" gradientUnits="userSpaceOnUse">
<stop stop-color="#F2F4F6"/>
<stop offset="1" stop-color="#ECEFF2"/>
</linearGradient>
<linearGradient id="paint3_linear_0_1" x1="32" y1="250" x2="67" y2="249" gradientUnits="userSpaceOnUse">
<stop stop-color="#F6F7F8"/>
<stop offset="1" stop-color="#E8ECEF"/>
</linearGradient>
<linearGradient id="paint4_linear_0_1" x1="67" y1="254" x2="302.5" y2="451" gradientUnits="userSpaceOnUse">
<stop stop-color="#F9F8FA"/>
<stop offset="0.919775" stop-color="#DCC7F1"/>
</linearGradient>
<linearGradient id="paint5_linear_0_1" x1="1266.38" y1="363.94" x2="1303.41" y2="-658.438" gradientUnits="userSpaceOnUse">
<stop stop-color="#222357"/>
<stop offset="1" stop-color="#254AA5"/>
</linearGradient>
<linearGradient id="paint6_linear_0_1" x1="385" y1="258.443" x2="718" y2="258.443" gradientUnits="userSpaceOnUse">
<stop offset="0.21" stop-color="#8F30E3"/>
<stop offset="0.965" stop-color="#950CE3"/>
</linearGradient>
<clipPath id="clip0_0_1">
<rect width="24" height="24" fill="white" transform="translate(680 160)"/>
</clipPath>
</defs>
</svg>
