<svg width="742" height="545" viewBox="0 0 742 545" fill="none" xmlns="http://www.w3.org/2000/svg">
<g filter="url(#filter0_d_0_1)">
<path d="M49.0159 239L0 356.331V385.576L23.5076 338.887L49.0159 290.145C55.3387 277.359 61.5028 257.031 71.0231 246.534C81.3872 235.107 90.3905 231.276 105.034 227.038C122.141 222.087 136.845 225.427 154.55 227.038C163.383 227.841 189.5 233 189.5 233C189.5 233 213.695 237.67 238.577 246.534C269.771 257.647 285.313 268.858 314.602 284.501C333.13 294.397 321.966 287.425 361.617 310.668L463.15 370.184C463.15 370.184 504.917 397.223 535.174 403.02C559.174 407.619 574.697 411.433 597.694 403.02C614.533 396.861 623.43 390.184 635.706 376.854C647.324 364.239 658.214 338.887 658.214 338.887C658.214 338.887 668.853 302.759 666.716 279.371C664.492 255.015 656.579 242.397 646.21 220.368C625.993 177.419 605.538 158.165 573.186 123.911C545.132 94.2076 527.083 79.7416 494.661 55.1597C456.781 26.4403 392.127 -10 392.127 -10H271.088C271.088 -10 381.978 44.0934 446.145 90.0484C492.368 123.153 558.181 183.427 558.181 183.427C558.181 183.427 601.695 227.551 622.202 274.753C627.704 287.417 635.706 338.887 635.706 338.887C635.706 338.887 613.701 353.386 597.694 356.331C578.734 359.819 567.43 355.206 548.678 350.687C506.642 340.557 489.016 318.496 451.647 296.302C424.802 280.359 410.796 269.579 383.625 254.23C346.204 233.092 325.417 219.955 285.093 205.489C252.404 193.762 246 189.57 209 181C191.663 176.984 172.312 174.395 154.55 173.679C132.763 172.8 119.045 173.445 99.5323 183.427C77.2829 194.808 49.0159 239 49.0159 239Z" fill="url(#paint0_linear_0_1)"/>
</g>
<g filter="url(#filter1_d_0_1)">
<path d="M370.664 409.976C364.883 428.842 346.757 451.79 346.757 451.79C346.757 451.79 341.853 474.018 346.757 486.464C352.382 500.742 358.007 514 358.007 514C358.007 514 385.246 481.062 391.758 451.79C397.742 424.886 391.758 373.772 391.758 373.772L358.007 286.575L276.912 167.764C276.912 167.764 293.864 158.585 305.506 158.585C373.476 158.585 411.39 173.337 479.416 181.022C551.983 189.219 583.011 198.869 665.513 198.869C687.545 198.869 692.701 193.77 713.326 181.022C728.258 171.793 735.827 155.526 738.639 135.639C742.773 106.407 737.584 87.5947 721.764 64.7599C697.388 29.5754 650.044 0 650.044 0H532.854C604.574 34.6746 646.763 52.5218 708.17 110.653L700.67 122.381C700.67 122.381 661.307 133.267 635.512 135.639C582.953 140.471 553.746 125.251 501.447 117.792C445.36 109.792 358.007 95.8651 358.007 95.8651C358.007 95.8651 326.009 90 305.506 90C294.34 90 281.753 92.8536 271 95.8651C260.279 98.8677 252.537 110.653 252.537 110.653C241 125.5 237.535 135.652 237 151C236.195 174.073 247.349 186.139 258.162 206.008C292.85 269.748 325.663 287.595 358.007 361.534C365.039 377.607 376.758 390.089 370.664 409.976Z" fill="url(#paint1_linear_0_1)"/>
</g>
<defs>
<filter id="filter0_d_0_1" x="-28" y="-10" width="695" height="432" filterUnits="userSpaceOnUse" color-interpolation-filters="sRGB">
<feFlood flood-opacity="0" result="BackgroundImageFix"/>
<feColorMatrix in="SourceAlpha" type="matrix" values="0 0 0 0 0 0 0 0 0 0 0 0 0 0 0 0 0 0 127 0" result="hardAlpha"/>
<feOffset dx="-28" dy="14"/>
<feComposite in2="hardAlpha" operator="out"/>
<feColorMatrix type="matrix" values="0 0 0 0 0.211765 0 0 0 0 0.156863 0 0 0 0 0.482353 0 0 0 1 0"/>
<feBlend mode="normal" in2="BackgroundImageFix" result="effect1_dropShadow_0_1"/>
<feBlend mode="normal" in="SourceGraphic" in2="effect1_dropShadow_0_1" result="shape"/>
</filter>
<filter id="filter1_d_0_1" x="223.659" y="0" width="517.641" height="544.3" filterUnits="userSpaceOnUse" color-interpolation-filters="sRGB">
<feFlood flood-opacity="0" result="BackgroundImageFix"/>
<feColorMatrix in="SourceAlpha" type="matrix" values="0 0 0 0 0 0 0 0 0 0 0 0 0 0 0 0 0 0 127 0" result="hardAlpha"/>
<feOffset dx="-6" dy="23"/>
<feGaussianBlur stdDeviation="3.65"/>
<feComposite in2="hardAlpha" operator="out"/>
<feColorMatrix type="matrix" values="0 0 0 0 0.211765 0 0 0 0 0.156863 0 0 0 0 0.482353 0 0 0 1 0"/>
<feBlend mode="normal" in2="BackgroundImageFix" result="effect1_dropShadow_0_1"/>
<feBlend mode="normal" in="SourceGraphic" in2="effect1_dropShadow_0_1" result="shape"/>
</filter>
<linearGradient id="paint0_linear_0_1" x1="333.5" y1="-10" x2="333.5" y2="408" gradientUnits="userSpaceOnUse">
<stop stop-color="#5330A4"/>
<stop offset="0.405" stop-color="#6029A6"/>
<stop offset="0.695" stop-color="#552FA4"/>
<stop offset="1" stop-color="#6029A7"/>
</linearGradient>
<linearGradient id="paint1_linear_0_1" x1="538" y1="-17.5" x2="475.471" y2="433.866" gradientUnits="userSpaceOnUse">
<stop stop-color="#3F2F89"/>
<stop offset="0.16837" stop-color="#384395"/>
<stop offset="0.398292" stop-color="#47389C"/>
<stop offset="0.594161" stop-color="#3B4097"/>
<stop offset="0.794183" stop-color="#4B369D"/>
</linearGradient>
</defs>
</svg>
