<svg width="45" height="48" viewBox="0 0 45 48" fill="none" xmlns="http://www.w3.org/2000/svg">
<path d="M10 37.1413L9.00125 37.0913L8.94875 38.1413H10V37.1413ZM10.5 27.1413L9.79289 26.4342L9.52049 26.7066L9.50125 27.0914L10.5 27.1413ZM18.5 34.6413L17.7929 35.3484L18.5159 36.0714L19.2226 35.3325L18.5 34.6413ZM33 11.2597L33.6976 10.5432L33 11.2597ZM14.2071 28.9342C13.8166 28.5437 13.1834 28.5437 12.7929 28.9342C12.4024 29.3247 12.4024 29.9579 12.7929 30.3484L14.2071 28.9342ZM14.5 36.1413H10V38.1413H14.5V36.1413ZM10.9988 37.1912L11.4988 27.1912L9.50125 27.0914L9.00125 37.0913L10.9988 37.1912ZM11.2071 27.8484L22.7071 16.3484L21.2929 14.9342L9.79289 26.4342L11.2071 27.8484ZM28.7774 22.4501L17.7774 33.9501L19.2226 35.3325L30.2226 23.8325L28.7774 22.4501ZM22 15.6413C22.8097 16.2281 22.8096 16.2283 22.8095 16.2285C22.8095 16.2285 22.8094 16.2286 22.8094 16.2286C22.8093 16.2287 22.8094 16.2286 22.8096 16.2283C22.8099 16.2279 22.8106 16.2269 22.8117 16.2254C22.8139 16.2224 22.8176 16.2174 22.8227 16.2104C22.8331 16.1964 22.8494 16.1745 22.8713 16.1454C22.9153 16.0872 22.9819 16.0002 23.0691 15.8898C23.2437 15.6688 23.5001 15.3553 23.8222 14.9915C24.4704 14.2596 25.367 13.3448 26.3846 12.5716C27.4149 11.7888 28.4919 11.2108 29.5054 11.047C30.4581 10.8931 31.3956 11.0932 32.3024 11.9762L33.6976 10.5432C32.3106 9.19268 30.7262 8.82379 29.1863 9.07262C27.7072 9.31162 26.3209 10.1082 25.1746 10.9792C24.0158 11.8597 23.0225 12.8779 22.325 13.6655C21.9743 14.0615 21.6939 14.4043 21.4999 14.6498C21.4028 14.7727 21.3272 14.8714 21.2749 14.9406C21.2488 14.9753 21.2285 15.0025 21.2143 15.0217C21.2072 15.0313 21.2017 15.0389 21.1976 15.0444C21.1956 15.0471 21.194 15.0494 21.1928 15.051C21.1922 15.0519 21.1916 15.0526 21.1912 15.0532C21.191 15.0535 21.1908 15.0538 21.1907 15.0539C21.1905 15.0542 21.1903 15.0545 22 15.6413ZM32.3024 11.9762C33.1833 12.8339 33.4498 13.8143 33.3555 14.8762C33.2571 15.9837 32.7604 17.1824 32.0775 18.3333C31.4014 19.4729 30.5848 20.4959 29.9293 21.24C29.6033 21.6101 29.321 21.9068 29.1217 22.1095C29.0222 22.2108 28.9437 22.2884 28.891 22.3397C28.8647 22.3653 28.8449 22.3843 28.8322 22.3965C28.8258 22.4025 28.8212 22.4069 28.8185 22.4094C28.8172 22.4107 28.8163 22.4116 28.8159 22.412C28.8157 22.4121 28.8156 22.4122 28.8156 22.4122C28.8156 22.4122 28.8157 22.4121 28.8157 22.4121C28.8159 22.4119 28.8161 22.4118 29.5 23.1413C30.1839 23.8709 30.1842 23.8706 30.1844 23.8704C30.1846 23.8703 30.1849 23.87 30.1851 23.8697C30.1856 23.8693 30.1863 23.8687 30.187 23.8679C30.1886 23.8665 30.1906 23.8646 30.193 23.8623C30.198 23.8576 30.2048 23.8511 30.2135 23.8429C30.2308 23.8263 30.2553 23.8027 30.2865 23.7724C30.3488 23.7116 30.4377 23.6238 30.5482 23.5114C30.7689 23.2869 31.0764 22.9634 31.4301 22.562C32.134 21.7629 33.0361 20.6371 33.7975 19.3539C34.5521 18.0821 35.2116 16.5842 35.3476 15.0532C35.4877 13.4765 35.0667 11.8763 33.6976 10.5432L32.3024 11.9762ZM22 15.6413C22.3079 16.5927 22.3077 16.5928 22.3075 16.5928C22.3075 16.5929 22.3073 16.5929 22.3072 16.5929C22.3071 16.593 22.307 16.593 22.307 16.593C22.307 16.593 22.3072 16.5929 22.3078 16.5928C22.3089 16.5924 22.3112 16.5917 22.3147 16.5906C22.3216 16.5884 22.333 16.5848 22.3488 16.58C22.3803 16.5704 22.4291 16.5558 22.4931 16.5375C22.6212 16.501 22.8097 16.4499 23.0433 16.3945C23.513 16.2831 24.1526 16.1569 24.8428 16.0926C25.5387 16.0277 26.2479 16.0295 26.8712 16.151C27.4956 16.2727 27.9633 16.4999 28.2729 16.8278L29.7271 15.4548C29.0367 14.7235 28.1294 14.3586 27.2538 14.188C26.3771 14.0171 25.4613 14.0263 24.6572 14.1012C23.8474 14.1767 23.112 14.3227 22.5817 14.4485C22.3153 14.5117 22.0975 14.5706 21.9444 14.6143C21.8678 14.6361 21.8072 14.6542 21.7645 14.6673C21.7431 14.6738 21.7263 14.679 21.7141 14.6829C21.708 14.6848 21.7031 14.6863 21.6995 14.6875C21.6976 14.6881 21.6961 14.6886 21.6948 14.689C21.6942 14.6892 21.6937 14.6894 21.6932 14.6895C21.693 14.6896 21.6927 14.6897 21.6926 14.6897C21.6923 14.6898 21.6921 14.6899 22 15.6413ZM28.2729 16.8278C28.5975 17.1716 28.8196 17.6715 28.9388 18.3117C29.0574 18.9494 29.0616 19.6618 29.0035 20.3518C28.9459 21.037 28.8298 21.6671 28.7271 22.1279C28.676 22.3572 28.6288 22.5418 28.595 22.6671C28.5782 22.7296 28.5647 22.7772 28.5558 22.808C28.5513 22.8233 28.548 22.8345 28.546 22.8411C28.545 22.8445 28.5444 22.8467 28.544 22.8478C28.5439 22.8483 28.5438 22.8486 28.5438 22.8486C28.5438 22.8486 28.5438 22.8485 28.5439 22.8483C28.5439 22.8482 28.544 22.848 28.544 22.848C28.544 22.8478 28.5441 22.8476 29.5 23.1413C30.4559 23.435 30.456 23.4348 30.4561 23.4345C30.4561 23.4344 30.4562 23.4341 30.4562 23.4339C30.4564 23.4334 30.4565 23.4329 30.4567 23.4323C30.4571 23.4311 30.4576 23.4295 30.4581 23.4277C30.4592 23.4241 30.4607 23.4193 30.4624 23.4133C30.466 23.4014 30.4709 23.3849 30.4769 23.364C30.489 23.3222 30.5058 23.2628 30.5261 23.1878C30.5665 23.0378 30.6209 22.8245 30.6792 22.563C30.7952 22.0423 30.9291 21.3196 30.9965 20.5196C31.0634 19.7244 31.0676 18.8192 30.905 17.9458C30.7429 17.0749 30.4025 16.1701 29.7271 15.4548L28.2729 16.8278ZM19.2071 33.9342L14.2071 28.9342L12.7929 30.3484L17.7929 35.3484L19.2071 33.9342Z" fill="#3D2E87"/>
</svg>
