<svg width="32" height="32" viewBox="0 0 32 32" fill="none" xmlns="http://www.w3.org/2000/svg">
<path d="M16 29.3333C8.63602 29.3333 2.66669 23.364 2.66669 16C2.66669 8.63599 8.63602 2.66666 16 2.66666C23.364 2.66666 29.3334 8.63599 29.3334 16C29.3334 23.364 23.364 29.3333 16 29.3333ZM16 26.6667C18.829 26.6667 21.5421 25.5428 23.5425 23.5425C25.5429 21.5421 26.6667 18.829 26.6667 16C26.6667 13.171 25.5429 10.4579 23.5425 8.45752C21.5421 6.45713 18.829 5.33332 16 5.33332C13.171 5.33332 10.4579 6.45713 8.45755 8.45752C6.45716 10.4579 5.33335 13.171 5.33335 16C5.33335 18.829 6.45716 21.5421 8.45755 23.5425C10.4579 25.5428 13.171 26.6667 16 26.6667ZM17.3334 16H22.6667V18.6667H14.6667V9.33332H17.3334V16Z" fill="url(#paint0_linear_10_118)"/>
<defs>
<linearGradient id="paint0_linear_10_118" x1="16" y1="2.66666" x2="16" y2="29.3333" gradientUnits="userSpaceOnUse">
<stop stop-color="#000075"/>
<stop offset="1" stop-color="#7D00D7"/>
</linearGradient>
</defs>
</svg>
