<svg width="16" height="16" viewBox="0 0 16 16" fill="none" xmlns="http://www.w3.org/2000/svg">
<path d="M5.86474 3.056C6.81499 1.352 7.28974 0.5 7.99999 0.5C8.71024 0.5 9.18499 1.352 10.1352 3.056L10.3812 3.497C10.6512 3.9815 10.7862 4.22375 10.9962 4.3835C11.2062 4.54325 11.4687 4.6025 11.9937 4.721L12.4707 4.829C14.3157 5.24675 15.2375 5.45525 15.4572 6.161C15.6762 6.866 15.0477 7.60175 13.79 9.0725L13.4645 9.45275C13.1075 9.8705 12.9282 10.0798 12.848 10.3377C12.7677 10.5965 12.7947 10.8755 12.8487 11.4327L12.8982 11.9405C13.088 13.9032 13.1832 14.8843 12.6087 15.32C12.0342 15.7565 11.1702 15.3582 9.44374 14.5632L8.99599 14.3577C8.50549 14.1312 8.26024 14.0187 7.99999 14.0187C7.73974 14.0187 7.49449 14.1312 7.00399 14.3577L6.55699 14.5632C4.82974 15.3582 3.96574 15.7557 3.39199 15.3207C2.81674 14.8842 2.91199 13.9032 3.10174 11.9405L3.15124 11.4335C3.20524 10.8755 3.23224 10.5965 3.15124 10.3385C3.07174 10.0798 2.89249 9.8705 2.53549 9.4535L2.20999 9.0725C0.952243 7.6025 0.323743 6.86675 0.542743 6.161C0.762493 5.45525 1.68499 5.246 3.52999 4.829L4.00699 4.721C4.53124 4.6025 4.79299 4.54325 5.00374 4.3835C5.21374 4.22375 5.34874 3.9815 5.61874 3.497L5.86474 3.056Z" fill="#6E2CBD"/>
</svg>
